<svg width="121" height="113" viewBox="0 0 121 113" fill="none" xmlns="http://www.w3.org/2000/svg">
<path d="M50.6896 19.0172L57.4112 24.0584C57.7614 24.3211 57.9001 24.781 57.7534 25.1934L50.1322 46.6282C50.0473 46.8671 50.0562 47.1294 50.1574 47.3619L59.1829 68.1206C59.515 68.8845 60.5808 68.9313 60.9786 68.1994L72.2757 47.4127C72.4178 47.1513 72.4361 46.8401 72.3255 46.5638L63.7659 25.1647C63.6069 24.7673 63.7185 24.3127 64.0436 24.0341L69.8744 19.0362C70.2377 18.7248 70.3295 18.1996 70.0933 17.7834L60.891 1.5699C60.5032 0.886652 59.5152 0.896869 59.1416 1.58799L50.4099 17.7417C50.1744 18.1775 50.2933 18.72 50.6896 19.0172Z" fill="#B70F0F"/>
<path d="M32.6684 8.17867L36.3623 12.7416C37.4208 14.0492 36.4902 16 34.8078 16H25.5791C24.0145 16 23.0558 17.7157 23.8758 19.0482L25.7033 22.0179C25.8973 22.3331 26 22.696 26 23.0661V60.6547C26 60.8832 26.0408 61.1155 26.1186 61.3303C34.5662 84.6364 52.2034 88.4953 60 87.5C77.7818 87.5 86.2183 78.8891 89.0843 72.9259C89.6528 71.7429 88.7142 70.5 87.4017 70.5H79.25C78.5596 70.5 78 69.9404 78 69.25C78 68.5596 78.5596 68 79.25 68H92C92.5523 68 93 67.5523 93 67C93 66.4477 92.5523 66 92 66H84.7361C83.2493 66 82.2823 64.4354 82.9472 63.1056L83.4472 62.1056C83.786 61.428 84.4785 61 85.2361 61H93C94.1046 61 95 60.1046 95 59V23.0042C95 22.6733 95.0821 22.3475 95.2391 22.056L96.9125 18.9482C97.63 17.6157 96.6649 16 95.1516 16H85.6922C84.0098 16 83.0792 14.0492 84.1378 12.7416L87.8225 8.18983C88.7908 6.99376 88.102 5.19805 86.5823 4.95627L72.0674 2.64708C70.4186 2.38478 69.181 4.14893 69.9312 5.64037C87.3557 40.2808 72.4 64.7957 61.3297 73.9581C60.5758 74.5821 59.4712 74.4912 58.7863 73.7921C35.3787 49.8997 41.9229 20.7967 49.7301 5.89894C50.536 4.36109 49.2517 2.4474 47.538 2.72637L33.9016 4.94625C32.3859 5.19299 31.7022 6.98509 32.6684 8.17867Z" fill="white"/>
<path d="M1.224 101V92H1.236L5.868 98.564L5.316 98.444L9.924 92H9.948V101H8.676V94.892L8.76 95.552L5.544 100.1H5.52L2.244 95.552L2.46 94.952V101H1.224ZM11.504 101L15.332 91.94H15.404L19.232 101H17.768L14.984 93.944L15.908 93.332L12.764 101H11.504ZM13.832 97.736H16.928L17.372 98.84H13.448L13.832 97.736ZM20.367 92.288L23.175 99.296L22.443 99.164L25.071 92.288H26.583L22.707 101.408L18.843 92.288H20.367ZM28.2592 92.288H33.9832V93.524H29.5432V96.008H33.4912V97.244H29.5432V99.764H34.1512V101H28.2592V92.288ZM38.5104 92.288C38.9664 92.288 39.3864 92.352 39.7704 92.48C40.1624 92.6 40.4944 92.776 40.7664 93.008C41.0464 93.24 41.2624 93.528 41.4144 93.872C41.5744 94.208 41.6544 94.6 41.6544 95.048C41.6544 95.392 41.6024 95.732 41.4984 96.068C41.3944 96.404 41.2264 96.708 40.9944 96.98C40.7624 97.252 40.4584 97.472 40.0824 97.64C39.7064 97.8 39.2384 97.88 38.6784 97.88H37.4064V101H36.1224V92.288H38.5104ZM38.6544 96.656C38.9824 96.656 39.2544 96.604 39.4704 96.5C39.6944 96.396 39.8664 96.268 39.9864 96.116C40.1144 95.956 40.2024 95.788 40.2504 95.612C40.3064 95.428 40.3344 95.252 40.3344 95.084C40.3344 94.924 40.3064 94.756 40.2504 94.58C40.2024 94.404 40.1144 94.236 39.9864 94.076C39.8664 93.916 39.7024 93.784 39.4944 93.68C39.2864 93.576 39.0304 93.524 38.7264 93.524H37.4064V96.656H38.6544ZM40.1304 97.4L42.3864 101H40.8984L38.6064 97.436L40.1304 97.4ZM44.1029 92.288H45.3869V101H44.1029V92.288ZM54.2495 100.34C54.1215 100.428 53.9295 100.536 53.6735 100.664C53.4255 100.784 53.1295 100.888 52.7855 100.976C52.4495 101.064 52.0775 101.104 51.6695 101.096C50.9895 101.088 50.3775 100.968 49.8335 100.736C49.2975 100.504 48.8415 100.188 48.4655 99.788C48.0895 99.38 47.7975 98.916 47.5895 98.396C47.3895 97.868 47.2895 97.308 47.2895 96.716C47.2895 96.06 47.3935 95.46 47.6015 94.916C47.8095 94.364 48.1055 93.884 48.4895 93.476C48.8815 93.068 49.3375 92.752 49.8575 92.528C50.3855 92.304 50.9615 92.192 51.5855 92.192C52.1215 92.192 52.6055 92.264 53.0375 92.408C53.4695 92.552 53.8335 92.72 54.1295 92.912L53.6255 94.112C53.3935 93.952 53.1055 93.8 52.7615 93.656C52.4255 93.504 52.0495 93.428 51.6335 93.428C51.2255 93.428 50.8375 93.512 50.4695 93.68C50.1095 93.84 49.7895 94.068 49.5095 94.364C49.2375 94.652 49.0215 94.992 48.8615 95.384C48.7015 95.768 48.6215 96.188 48.6215 96.644C48.6215 97.108 48.6935 97.536 48.8375 97.928C48.9815 98.32 49.1855 98.66 49.4495 98.948C49.7215 99.236 50.0455 99.46 50.4215 99.62C50.7975 99.78 51.2215 99.86 51.6935 99.86C52.1415 99.86 52.5335 99.792 52.8695 99.656C53.2135 99.52 53.4935 99.364 53.7095 99.188L54.2495 100.34ZM57.4692 95.72L57.4332 96.152L57.6132 95.9L61.0212 92.288H62.6772L59.0772 96.068L62.8452 101H61.2252L58.1412 96.872L57.4692 97.532V101H56.1732V92.288H57.4692V95.72ZM68.1967 101V92.288H70.6207C71.4847 92.288 72.2207 92.42 72.8287 92.684C73.4367 92.948 73.9247 93.296 74.2927 93.728C74.6687 94.16 74.9407 94.64 75.1087 95.168C75.2847 95.696 75.3727 96.228 75.3727 96.764C75.3727 97.412 75.2567 97.996 75.0247 98.516C74.7927 99.036 74.4767 99.484 74.0767 99.86C73.6767 100.228 73.2167 100.512 72.6967 100.712C72.1767 100.904 71.6247 101 71.0407 101H68.1967ZM69.4807 99.764H70.8007C71.2727 99.764 71.7047 99.696 72.0967 99.56C72.4967 99.424 72.8407 99.224 73.1287 98.96C73.4247 98.696 73.6527 98.372 73.8127 97.988C73.9727 97.604 74.0527 97.164 74.0527 96.668C74.0527 96.132 73.9607 95.668 73.7767 95.276C73.6007 94.876 73.3647 94.548 73.0687 94.292C72.7727 94.028 72.4407 93.836 72.0727 93.716C71.7127 93.588 71.3447 93.524 70.9687 93.524H69.4807V99.764ZM79.6667 92.288C80.1227 92.288 80.5427 92.352 80.9267 92.48C81.3187 92.6 81.6507 92.776 81.9227 93.008C82.2027 93.24 82.4187 93.528 82.5707 93.872C82.7307 94.208 82.8107 94.6 82.8107 95.048C82.8107 95.392 82.7587 95.732 82.6547 96.068C82.5507 96.404 82.3827 96.708 82.1507 96.98C81.9187 97.252 81.6147 97.472 81.2387 97.64C80.8627 97.8 80.3947 97.88 79.8347 97.88H78.5627V101H77.2787V92.288H79.6667ZM79.8107 96.656C80.1387 96.656 80.4107 96.604 80.6267 96.5C80.8507 96.396 81.0227 96.268 81.1427 96.116C81.2707 95.956 81.3587 95.788 81.4067 95.612C81.4627 95.428 81.4907 95.252 81.4907 95.084C81.4907 94.924 81.4627 94.756 81.4067 94.58C81.3587 94.404 81.2707 94.236 81.1427 94.076C81.0227 93.916 80.8587 93.784 80.6507 93.68C80.4427 93.576 80.1867 93.524 79.8827 93.524H78.5627V96.656H79.8107ZM81.2867 97.4L83.5427 101H82.0547L79.7627 97.436L81.2867 97.4ZM85.2592 92.288H90.9832V93.524H86.5432V96.008H90.4912V97.244H86.5432V99.764H91.1512V101H85.2592V92.288ZM97.6584 93.956C97.3544 93.796 97.0264 93.66 96.6744 93.548C96.3224 93.436 95.9824 93.38 95.6544 93.38C95.2064 93.38 94.8504 93.484 94.5864 93.692C94.3224 93.892 94.1904 94.168 94.1904 94.52C94.1904 94.768 94.2784 94.984 94.4544 95.168C94.6304 95.352 94.8584 95.512 95.1384 95.648C95.4184 95.784 95.7144 95.912 96.0264 96.032C96.2904 96.128 96.5504 96.244 96.8064 96.38C97.0704 96.508 97.3064 96.668 97.5144 96.86C97.7304 97.052 97.8984 97.292 98.0184 97.58C98.1464 97.86 98.2104 98.204 98.2104 98.612C98.2104 99.076 98.0944 99.496 97.8624 99.872C97.6384 100.248 97.3104 100.548 96.8784 100.772C96.4544 100.988 95.9384 101.096 95.3304 101.096C94.9624 101.096 94.6024 101.056 94.2504 100.976C93.9064 100.888 93.5784 100.776 93.2664 100.64C92.9624 100.496 92.6864 100.34 92.4384 100.172L93.0144 99.176C93.2064 99.312 93.4264 99.444 93.6744 99.572C93.9224 99.692 94.1784 99.788 94.4424 99.86C94.7144 99.932 94.9704 99.968 95.2104 99.968C95.4744 99.968 95.7344 99.924 95.9904 99.836C96.2464 99.74 96.4584 99.596 96.6264 99.404C96.7944 99.204 96.8784 98.944 96.8784 98.624C96.8784 98.352 96.8024 98.124 96.6504 97.94C96.5064 97.748 96.3104 97.584 96.0624 97.448C95.8224 97.312 95.5624 97.192 95.2824 97.088C95.0104 96.984 94.7344 96.868 94.4544 96.74C94.1744 96.612 93.9144 96.46 93.6744 96.284C93.4344 96.1 93.2384 95.876 93.0864 95.612C92.9424 95.34 92.8704 95.008 92.8704 94.616C92.8704 94.152 92.9784 93.748 93.1944 93.404C93.4184 93.052 93.7264 92.776 94.1184 92.576C94.5104 92.376 94.9624 92.264 95.4744 92.24C96.0584 92.24 96.5664 92.312 96.9984 92.456C97.4304 92.6 97.8144 92.772 98.1504 92.972L97.6584 93.956ZM104.643 93.956C104.339 93.796 104.011 93.66 103.659 93.548C103.307 93.436 102.967 93.38 102.639 93.38C102.191 93.38 101.835 93.484 101.571 93.692C101.307 93.892 101.175 94.168 101.175 94.52C101.175 94.768 101.263 94.984 101.439 95.168C101.615 95.352 101.843 95.512 102.123 95.648C102.403 95.784 102.699 95.912 103.011 96.032C103.275 96.128 103.535 96.244 103.791 96.38C104.055 96.508 104.291 96.668 104.499 96.86C104.715 97.052 104.883 97.292 105.003 97.58C105.131 97.86 105.195 98.204 105.195 98.612C105.195 99.076 105.079 99.496 104.847 99.872C104.623 100.248 104.295 100.548 103.863 100.772C103.439 100.988 102.923 101.096 102.315 101.096C101.947 101.096 101.587 101.056 101.235 100.976C100.891 100.888 100.563 100.776 100.251 100.64C99.9468 100.496 99.6708 100.34 99.4228 100.172L99.9988 99.176C100.191 99.312 100.411 99.444 100.659 99.572C100.907 99.692 101.163 99.788 101.427 99.86C101.699 99.932 101.955 99.968 102.195 99.968C102.459 99.968 102.719 99.924 102.975 99.836C103.231 99.74 103.443 99.596 103.611 99.404C103.779 99.204 103.863 98.944 103.863 98.624C103.863 98.352 103.787 98.124 103.635 97.94C103.491 97.748 103.295 97.584 103.047 97.448C102.807 97.312 102.547 97.192 102.267 97.088C101.995 96.984 101.719 96.868 101.439 96.74C101.159 96.612 100.899 96.46 100.659 96.284C100.419 96.1 100.223 95.876 100.071 95.612C99.9268 95.34 99.8548 95.008 99.8548 94.616C99.8548 94.152 99.9628 93.748 100.179 93.404C100.403 93.052 100.711 92.776 101.103 92.576C101.495 92.376 101.947 92.264 102.459 92.24C103.043 92.24 103.551 92.312 103.983 92.456C104.415 92.6 104.799 92.772 105.135 92.972L104.643 93.956ZM107.091 92.288H112.815V93.524H108.375V96.008H112.323V97.244H108.375V99.764H112.983V101H107.091V92.288ZM119.49 93.956C119.186 93.796 118.858 93.66 118.506 93.548C118.154 93.436 117.814 93.38 117.486 93.38C117.038 93.38 116.682 93.484 116.418 93.692C116.154 93.892 116.022 94.168 116.022 94.52C116.022 94.768 116.11 94.984 116.286 95.168C116.462 95.352 116.69 95.512 116.97 95.648C117.25 95.784 117.546 95.912 117.858 96.032C118.122 96.128 118.382 96.244 118.638 96.38C118.902 96.508 119.138 96.668 119.346 96.86C119.562 97.052 119.73 97.292 119.85 97.58C119.978 97.86 120.042 98.204 120.042 98.612C120.042 99.076 119.926 99.496 119.694 99.872C119.47 100.248 119.142 100.548 118.71 100.772C118.286 100.988 117.77 101.096 117.162 101.096C116.794 101.096 116.434 101.056 116.082 100.976C115.738 100.888 115.41 100.776 115.098 100.64C114.794 100.496 114.518 100.34 114.27 100.172L114.846 99.176C115.038 99.312 115.258 99.444 115.506 99.572C115.754 99.692 116.01 99.788 116.274 99.86C116.546 99.932 116.802 99.968 117.042 99.968C117.306 99.968 117.566 99.924 117.822 99.836C118.078 99.74 118.29 99.596 118.458 99.404C118.626 99.204 118.71 98.944 118.71 98.624C118.71 98.352 118.634 98.124 118.482 97.94C118.338 97.748 118.142 97.584 117.894 97.448C117.654 97.312 117.394 97.192 117.114 97.088C116.842 96.984 116.566 96.868 116.286 96.74C116.006 96.612 115.746 96.46 115.506 96.284C115.266 96.1 115.07 95.876 114.918 95.612C114.774 95.34 114.702 95.008 114.702 94.616C114.702 94.152 114.81 93.748 115.026 93.404C115.25 93.052 115.558 92.776 115.95 92.576C116.342 92.376 116.794 92.264 117.306 92.24C117.89 92.24 118.398 92.312 118.83 92.456C119.262 92.6 119.646 92.772 119.982 92.972L119.49 93.956Z" fill="#B70F0F"/>
<path d="M11.655 104.466C12.315 104.466 12.834 104.601 13.212 104.871C13.596 105.141 13.788 105.555 13.788 106.113C13.788 106.473 13.704 106.782 13.536 107.04C13.374 107.298 13.146 107.499 12.852 107.643C12.564 107.781 12.222 107.859 11.826 107.877L11.682 107.364C12.144 107.376 12.555 107.457 12.915 107.607C13.281 107.751 13.569 107.955 13.779 108.219C13.995 108.477 14.103 108.786 14.103 109.146C14.103 109.476 14.04 109.761 13.914 110.001C13.794 110.235 13.629 110.427 13.419 110.577C13.215 110.721 12.981 110.829 12.717 110.901C12.459 110.967 12.189 111 11.907 111H9.918V104.466H11.655ZM11.826 107.292C12.162 107.292 12.408 107.196 12.564 107.004C12.72 106.812 12.798 106.584 12.798 106.32C12.798 105.996 12.696 105.762 12.492 105.618C12.294 105.468 12.03 105.393 11.7 105.393H10.881V107.292H11.826ZM11.862 110.109C12.096 110.109 12.306 110.076 12.492 110.01C12.684 109.938 12.834 109.833 12.942 109.695C13.056 109.551 13.113 109.371 13.113 109.155C13.113 108.915 13.047 108.729 12.915 108.597C12.789 108.459 12.624 108.363 12.42 108.309C12.222 108.249 12.015 108.219 11.799 108.219H10.881V110.109H11.862ZM17.1002 111.09C16.6622 111.09 16.2872 111.006 15.9752 110.838C15.6632 110.664 15.4232 110.427 15.2552 110.127C15.0872 109.821 15.0032 109.473 15.0032 109.083C15.0032 108.711 15.0962 108.375 15.2822 108.075C15.4742 107.769 15.7292 107.526 16.0472 107.346C16.3712 107.166 16.7282 107.076 17.1182 107.076C17.6222 107.076 18.0392 107.223 18.3692 107.517C18.7052 107.811 18.9302 108.222 19.0442 108.75L15.9752 109.812L15.7592 109.272L18.2162 108.39L18.0272 108.507C17.9552 108.321 17.8412 108.159 17.6852 108.021C17.5292 107.877 17.3162 107.805 17.0462 107.805C16.8302 107.805 16.6352 107.859 16.4612 107.967C16.2932 108.069 16.1582 108.213 16.0562 108.399C15.9602 108.579 15.9122 108.792 15.9122 109.038C15.9122 109.29 15.9632 109.512 16.0652 109.704C16.1732 109.89 16.3172 110.037 16.4972 110.145C16.6832 110.253 16.8902 110.307 17.1182 110.307C17.2802 110.307 17.4332 110.277 17.5772 110.217C17.7272 110.157 17.8682 110.082 18.0002 109.992L18.4232 110.676C18.2252 110.802 18.0092 110.904 17.7752 110.982C17.5472 111.054 17.3222 111.09 17.1002 111.09ZM21.1713 111.081C20.8953 111.081 20.6283 111.033 20.3703 110.937C20.1123 110.835 19.8993 110.688 19.7313 110.496L20.1273 109.974C20.2893 110.124 20.4513 110.238 20.6133 110.316C20.7813 110.388 20.9403 110.424 21.0903 110.424C21.2103 110.424 21.3183 110.412 21.4143 110.388C21.5103 110.358 21.5883 110.31 21.6483 110.244C21.7083 110.178 21.7383 110.091 21.7383 109.983C21.7383 109.857 21.6963 109.758 21.6123 109.686C21.5283 109.614 21.4203 109.554 21.2883 109.506C21.1563 109.458 21.0153 109.413 20.8653 109.371C20.5473 109.269 20.3073 109.125 20.1453 108.939C19.9833 108.747 19.9023 108.522 19.9023 108.264C19.9023 108.066 19.9503 107.88 20.0463 107.706C20.1483 107.526 20.3013 107.379 20.5053 107.265C20.7093 107.151 20.9613 107.094 21.2613 107.094C21.5373 107.094 21.7803 107.127 21.9903 107.193C22.2003 107.253 22.3953 107.358 22.5753 107.508L22.2153 108.066C22.1073 107.958 21.9783 107.877 21.8283 107.823C21.6843 107.763 21.5523 107.73 21.4323 107.724C21.3243 107.724 21.2253 107.742 21.1353 107.778C21.0453 107.808 20.9733 107.856 20.9193 107.922C20.8653 107.982 20.8383 108.054 20.8383 108.138C20.8323 108.258 20.8713 108.357 20.9553 108.435C21.0453 108.507 21.1593 108.567 21.2973 108.615C21.4353 108.657 21.5703 108.702 21.7023 108.75C21.8883 108.804 22.0533 108.879 22.1973 108.975C22.3413 109.065 22.4553 109.176 22.5393 109.308C22.6233 109.44 22.6653 109.608 22.6653 109.812C22.6653 110.034 22.6113 110.244 22.5033 110.442C22.3953 110.634 22.2303 110.79 22.0083 110.91C21.7863 111.024 21.5073 111.081 21.1713 111.081ZM24.1687 105.573H25.0957V107.238H26.1037V107.967H25.0957V111H24.1687V107.967H23.5027V107.238H24.1687V105.573ZM33.5788 105.717C33.3508 105.597 33.1048 105.495 32.8408 105.411C32.5768 105.327 32.3218 105.285 32.0758 105.285C31.7398 105.285 31.4728 105.363 31.2748 105.519C31.0768 105.669 30.9778 105.876 30.9778 106.14C30.9778 106.326 31.0438 106.488 31.1758 106.626C31.3078 106.764 31.4788 106.884 31.6888 106.986C31.8988 107.088 32.1208 107.184 32.3548 107.274C32.5528 107.346 32.7478 107.433 32.9398 107.535C33.1378 107.631 33.3148 107.751 33.4708 107.895C33.6328 108.039 33.7588 108.219 33.8488 108.435C33.9448 108.645 33.9928 108.903 33.9928 109.209C33.9928 109.557 33.9058 109.872 33.7318 110.154C33.5638 110.436 33.3178 110.661 32.9938 110.829C32.6758 110.991 32.2888 111.072 31.8328 111.072C31.5568 111.072 31.2868 111.042 31.0228 110.982C30.7648 110.916 30.5188 110.832 30.2848 110.73C30.0568 110.622 29.8498 110.505 29.6638 110.379L30.0958 109.632C30.2398 109.734 30.4048 109.833 30.5908 109.929C30.7768 110.019 30.9688 110.091 31.1668 110.145C31.3708 110.199 31.5628 110.226 31.7428 110.226C31.9408 110.226 32.1358 110.193 32.3278 110.127C32.5198 110.055 32.6788 109.947 32.8048 109.803C32.9308 109.653 32.9938 109.458 32.9938 109.218C32.9938 109.014 32.9368 108.843 32.8228 108.705C32.7148 108.561 32.5678 108.438 32.3818 108.336C32.2018 108.234 32.0068 108.144 31.7968 108.066C31.5928 107.988 31.3858 107.901 31.1758 107.805C30.9658 107.709 30.7708 107.595 30.5908 107.463C30.4108 107.325 30.2638 107.157 30.1498 106.959C30.0418 106.755 29.9878 106.506 29.9878 106.212C29.9878 105.864 30.0688 105.561 30.2308 105.303C30.3988 105.039 30.6298 104.832 30.9238 104.682C31.2178 104.532 31.5568 104.448 31.9408 104.43C32.3788 104.43 32.7598 104.484 33.0838 104.592C33.4078 104.7 33.6958 104.829 33.9478 104.979L33.5788 105.717ZM38.2951 110.649C38.1271 110.787 37.9231 110.895 37.6831 110.973C37.4491 111.051 37.2121 111.09 36.9721 111.09C36.5581 111.09 36.1921 111.009 35.8741 110.847C35.5621 110.685 35.3191 110.457 35.1451 110.163C34.9711 109.869 34.8841 109.518 34.8841 109.11C34.8841 108.708 34.9771 108.36 35.1631 108.066C35.3491 107.766 35.5951 107.538 35.9011 107.382C36.2071 107.22 36.5311 107.139 36.8731 107.139C37.1851 107.139 37.4611 107.181 37.7011 107.265C37.9411 107.349 38.1481 107.466 38.3221 107.616L37.8631 108.219C37.7611 108.135 37.6321 108.06 37.4761 107.994C37.3261 107.928 37.1521 107.895 36.9541 107.895C36.7441 107.895 36.5521 107.949 36.3781 108.057C36.2041 108.159 36.0661 108.303 35.9641 108.489C35.8621 108.669 35.8111 108.876 35.8111 109.11C35.8111 109.332 35.8621 109.539 35.9641 109.731C36.0721 109.917 36.2191 110.064 36.4051 110.172C36.5911 110.28 36.8041 110.334 37.0441 110.334C37.2001 110.334 37.3441 110.313 37.4761 110.271C37.6081 110.223 37.7251 110.157 37.8271 110.073L38.2951 110.649ZM39.3565 111V104.007H40.2565V108.084L40.2475 107.931C40.3735 107.685 40.5655 107.481 40.8235 107.319C41.0815 107.157 41.3905 107.076 41.7505 107.076C42.1045 107.076 42.3955 107.181 42.6235 107.391C42.8575 107.601 42.9775 107.874 42.9835 108.21V111H42.0565V108.534C42.0505 108.342 41.9935 108.186 41.8855 108.066C41.7775 107.94 41.6095 107.874 41.3815 107.868C41.1775 107.868 40.9915 107.931 40.8235 108.057C40.6555 108.177 40.5235 108.345 40.4275 108.561C40.3315 108.771 40.2835 109.011 40.2835 109.281V111H39.3565ZM44.0774 109.074C44.0774 108.696 44.1674 108.357 44.3474 108.057C44.5274 107.751 44.7764 107.511 45.0944 107.337C45.4124 107.163 45.7754 107.076 46.1834 107.076C46.5974 107.076 46.9604 107.163 47.2724 107.337C47.5844 107.511 47.8244 107.751 47.9924 108.057C48.1664 108.357 48.2534 108.696 48.2534 109.074C48.2534 109.452 48.1664 109.794 47.9924 110.1C47.8244 110.406 47.5844 110.649 47.2724 110.829C46.9604 111.003 46.5944 111.09 46.1744 111.09C45.7724 111.09 45.4124 111.009 45.0944 110.847C44.7824 110.685 44.5334 110.454 44.3474 110.154C44.1674 109.848 44.0774 109.488 44.0774 109.074ZM45.0134 109.083C45.0134 109.317 45.0644 109.53 45.1664 109.722C45.2684 109.908 45.4064 110.058 45.5804 110.172C45.7544 110.28 45.9494 110.334 46.1654 110.334C46.3874 110.334 46.5854 110.28 46.7594 110.172C46.9334 110.058 47.0684 109.908 47.1644 109.722C47.2664 109.53 47.3174 109.317 47.3174 109.083C47.3174 108.849 47.2664 108.639 47.1644 108.453C47.0684 108.267 46.9334 108.117 46.7594 108.003C46.5854 107.889 46.3874 107.832 46.1654 107.832C45.9434 107.832 45.7454 107.889 45.5714 108.003C45.3974 108.117 45.2594 108.27 45.1574 108.462C45.0614 108.648 45.0134 108.855 45.0134 109.083ZM49.0257 109.074C49.0257 108.696 49.1157 108.357 49.2957 108.057C49.4757 107.751 49.7247 107.511 50.0427 107.337C50.3607 107.163 50.7237 107.076 51.1317 107.076C51.5457 107.076 51.9087 107.163 52.2207 107.337C52.5327 107.511 52.7727 107.751 52.9407 108.057C53.1147 108.357 53.2017 108.696 53.2017 109.074C53.2017 109.452 53.1147 109.794 52.9407 110.1C52.7727 110.406 52.5327 110.649 52.2207 110.829C51.9087 111.003 51.5427 111.09 51.1227 111.09C50.7207 111.09 50.3607 111.009 50.0427 110.847C49.7307 110.685 49.4817 110.454 49.2957 110.154C49.1157 109.848 49.0257 109.488 49.0257 109.074ZM49.9617 109.083C49.9617 109.317 50.0127 109.53 50.1147 109.722C50.2167 109.908 50.3547 110.058 50.5287 110.172C50.7027 110.28 50.8977 110.334 51.1137 110.334C51.3357 110.334 51.5337 110.28 51.7077 110.172C51.8817 110.058 52.0167 109.908 52.1127 109.722C52.2147 109.53 52.2657 109.317 52.2657 109.083C52.2657 108.849 52.2147 108.639 52.1127 108.453C52.0167 108.267 51.8817 108.117 51.7077 108.003C51.5337 107.889 51.3357 107.832 51.1137 107.832C50.8917 107.832 50.6937 107.889 50.5197 108.003C50.3457 108.117 50.2077 108.27 50.1057 108.462C50.0097 108.648 49.9617 108.855 49.9617 109.083ZM54.2979 104.007H55.2249V111H54.2979V104.007ZM59.1108 107.229L60.1638 109.65L59.9838 109.659L60.9468 107.229H61.8558L60.1278 111.225L58.9218 108.66L57.8148 111.225L56.0778 107.229H56.9868L58.1028 109.767L57.7788 109.713L58.5888 107.841L58.3098 107.229H59.1108ZM64.3942 111.09C63.9562 111.09 63.5812 111.006 63.2692 110.838C62.9572 110.664 62.7172 110.427 62.5492 110.127C62.3812 109.821 62.2972 109.473 62.2972 109.083C62.2972 108.711 62.3902 108.375 62.5762 108.075C62.7682 107.769 63.0232 107.526 63.3412 107.346C63.6652 107.166 64.0222 107.076 64.4122 107.076C64.9162 107.076 65.3332 107.223 65.6632 107.517C65.9992 107.811 66.2242 108.222 66.3382 108.75L63.2692 109.812L63.0532 109.272L65.5102 108.39L65.3212 108.507C65.2492 108.321 65.1352 108.159 64.9792 108.021C64.8232 107.877 64.6102 107.805 64.3402 107.805C64.1242 107.805 63.9292 107.859 63.7552 107.967C63.5872 108.069 63.4522 108.213 63.3502 108.399C63.2542 108.579 63.2062 108.792 63.2062 109.038C63.2062 109.29 63.2572 109.512 63.3592 109.704C63.4672 109.89 63.6112 110.037 63.7912 110.145C63.9772 110.253 64.1842 110.307 64.4122 110.307C64.5742 110.307 64.7272 110.277 64.8712 110.217C65.0212 110.157 65.1622 110.082 65.2942 109.992L65.7172 110.676C65.5192 110.802 65.3032 110.904 65.0692 110.982C64.8412 111.054 64.6162 111.09 64.3942 111.09ZM68.9423 111.09C68.5883 111.09 68.2673 111.018 67.9792 110.874C67.6913 110.724 67.4633 110.502 67.2953 110.208C67.1273 109.914 67.0433 109.551 67.0433 109.119C67.0433 108.693 67.1303 108.327 67.3043 108.021C67.4843 107.715 67.7183 107.481 68.0063 107.319C68.3003 107.151 68.6183 107.067 68.9603 107.067C69.3203 107.067 69.6143 107.145 69.8423 107.301C70.0763 107.451 70.2593 107.628 70.3913 107.832L70.3283 107.976L70.4183 107.229H71.2733V111H70.3463V110.055L70.4453 110.28C70.4213 110.328 70.3703 110.397 70.2923 110.487C70.2143 110.571 70.1093 110.661 69.9773 110.757C69.8513 110.853 69.7013 110.934 69.5273 111C69.3593 111.06 69.1643 111.09 68.9423 111.09ZM69.1943 110.334C69.3923 110.334 69.5693 110.298 69.7253 110.226C69.8813 110.154 70.0133 110.052 70.1213 109.92C70.2293 109.788 70.3043 109.632 70.3463 109.452V108.669C70.2983 108.501 70.2173 108.357 70.1033 108.237C69.9893 108.111 69.8513 108.012 69.6893 107.94C69.5333 107.868 69.3593 107.832 69.1673 107.832C68.9513 107.832 68.7533 107.886 68.5733 107.994C68.3933 108.096 68.2493 108.24 68.1413 108.426C68.0333 108.612 67.9792 108.828 67.9792 109.074C67.9792 109.308 68.0333 109.521 68.1413 109.713C68.2553 109.905 68.4053 110.058 68.5913 110.172C68.7773 110.28 68.9783 110.334 69.1943 110.334ZM73.5214 107.229L73.6114 108.309L73.5664 108.165C73.6684 107.937 73.8124 107.742 73.9984 107.58C74.1844 107.418 74.3764 107.295 74.5744 107.211C74.7784 107.121 74.9494 107.076 75.0874 107.076L75.0424 107.994C74.7544 107.976 74.5024 108.03 74.2864 108.156C74.0764 108.282 73.9114 108.45 73.7914 108.66C73.6714 108.87 73.6114 109.095 73.6114 109.335V111H72.6934V107.229H73.5214ZM79.211 111V104.466H81.029C81.677 104.466 82.229 104.565 82.685 104.763C83.141 104.961 83.507 105.222 83.783 105.546C84.065 105.87 84.269 106.23 84.395 106.626C84.527 107.022 84.593 107.421 84.593 107.823C84.593 108.309 84.506 108.747 84.332 109.137C84.158 109.527 83.921 109.863 83.621 110.145C83.321 110.421 82.976 110.634 82.586 110.784C82.196 110.928 81.782 111 81.344 111H79.211ZM80.174 110.073H81.164C81.518 110.073 81.842 110.022 82.136 109.92C82.436 109.818 82.694 109.668 82.91 109.47C83.132 109.272 83.303 109.029 83.423 108.741C83.543 108.453 83.603 108.123 83.603 107.751C83.603 107.349 83.534 107.001 83.396 106.707C83.264 106.407 83.087 106.161 82.865 105.969C82.643 105.771 82.394 105.627 82.118 105.537C81.848 105.441 81.572 105.393 81.29 105.393H80.174V110.073ZM87.5885 111.09C87.1505 111.09 86.7755 111.006 86.4635 110.838C86.1515 110.664 85.9115 110.427 85.7435 110.127C85.5755 109.821 85.4915 109.473 85.4915 109.083C85.4915 108.711 85.5845 108.375 85.7705 108.075C85.9625 107.769 86.2175 107.526 86.5355 107.346C86.8595 107.166 87.2165 107.076 87.6065 107.076C88.1105 107.076 88.5275 107.223 88.8575 107.517C89.1935 107.811 89.4185 108.222 89.5325 108.75L86.4635 109.812L86.2475 109.272L88.7045 108.39L88.5155 108.507C88.4435 108.321 88.3295 108.159 88.1735 108.021C88.0175 107.877 87.8045 107.805 87.5345 107.805C87.3185 107.805 87.1235 107.859 86.9495 107.967C86.7815 108.069 86.6465 108.213 86.5445 108.399C86.4485 108.579 86.4005 108.792 86.4005 109.038C86.4005 109.29 86.4515 109.512 86.5535 109.704C86.6615 109.89 86.8055 110.037 86.9855 110.145C87.1715 110.253 87.3785 110.307 87.6065 110.307C87.7685 110.307 87.9215 110.277 88.0655 110.217C88.2155 110.157 88.3565 110.082 88.4885 109.992L88.9115 110.676C88.7135 110.802 88.4975 110.904 88.2635 110.982C88.0355 111.054 87.8105 111.09 87.5885 111.09ZM91.6596 111.081C91.3836 111.081 91.1166 111.033 90.8586 110.937C90.6006 110.835 90.3876 110.688 90.2196 110.496L90.6156 109.974C90.7776 110.124 90.9396 110.238 91.1016 110.316C91.2696 110.388 91.4286 110.424 91.5786 110.424C91.6986 110.424 91.8066 110.412 91.9026 110.388C91.9986 110.358 92.0766 110.31 92.1366 110.244C92.1966 110.178 92.2266 110.091 92.2266 109.983C92.2266 109.857 92.1846 109.758 92.1006 109.686C92.0166 109.614 91.9086 109.554 91.7766 109.506C91.6446 109.458 91.5036 109.413 91.3536 109.371C91.0356 109.269 90.7956 109.125 90.6336 108.939C90.4716 108.747 90.3906 108.522 90.3906 108.264C90.3906 108.066 90.4386 107.88 90.5346 107.706C90.6366 107.526 90.7896 107.379 90.9936 107.265C91.1976 107.151 91.4496 107.094 91.7496 107.094C92.0256 107.094 92.2686 107.127 92.4786 107.193C92.6886 107.253 92.8836 107.358 93.0636 107.508L92.7036 108.066C92.5956 107.958 92.4666 107.877 92.3166 107.823C92.1726 107.763 92.0406 107.73 91.9206 107.724C91.8126 107.724 91.7136 107.742 91.6236 107.778C91.5336 107.808 91.4616 107.856 91.4076 107.922C91.3536 107.982 91.3266 108.054 91.3266 108.138C91.3206 108.258 91.3596 108.357 91.4436 108.435C91.5336 108.507 91.6476 108.567 91.7856 108.615C91.9236 108.657 92.0586 108.702 92.1906 108.75C92.3766 108.804 92.5416 108.879 92.6856 108.975C92.8296 109.065 92.9436 109.176 93.0276 109.308C93.1116 109.44 93.1536 109.608 93.1536 109.812C93.1536 110.034 93.0996 110.244 92.9916 110.442C92.8836 110.634 92.7186 110.79 92.4966 110.91C92.2746 111.024 91.9956 111.081 91.6596 111.081ZM94.2969 107.229H95.2239V111H94.2969V107.229ZM94.2429 105.879C94.2429 105.735 94.2999 105.615 94.4139 105.519C94.5279 105.423 94.6509 105.375 94.7829 105.375C94.9209 105.375 95.0439 105.423 95.1519 105.519C95.2599 105.615 95.3139 105.735 95.3139 105.879C95.3139 106.023 95.2599 106.143 95.1519 106.239C95.0439 106.329 94.9209 106.374 94.7829 106.374C94.6509 106.374 94.5279 106.329 94.4139 106.239C94.2999 106.143 94.2429 106.023 94.2429 105.879ZM98.4798 112.872C98.1858 112.872 97.9308 112.839 97.7148 112.773C97.4988 112.707 97.3038 112.614 97.1298 112.494C96.9618 112.38 96.7998 112.257 96.6438 112.125L97.1928 111.486C97.3788 111.66 97.5708 111.798 97.7688 111.9C97.9668 112.008 98.1978 112.062 98.4618 112.062C98.7258 112.062 98.9508 112.017 99.1368 111.927C99.3288 111.843 99.4758 111.723 99.5778 111.567C99.6798 111.411 99.7308 111.225 99.7308 111.009L99.7398 110.028L99.8028 110.208C99.7008 110.454 99.5118 110.664 99.2358 110.838C98.9598 111.006 98.6208 111.09 98.2188 111.09C97.8768 111.09 97.5588 111.003 97.2648 110.829C96.9768 110.655 96.7458 110.418 96.5718 110.118C96.3978 109.818 96.3108 109.479 96.3108 109.101C96.3108 108.705 96.4008 108.357 96.5808 108.057C96.7668 107.751 97.0098 107.511 97.3098 107.337C97.6098 107.157 97.9308 107.067 98.2728 107.067C98.6088 107.067 98.9088 107.133 99.1728 107.265C99.4368 107.391 99.6348 107.55 99.7668 107.742L99.7128 107.895L99.8118 107.229H100.667V111.018C100.667 111.366 100.574 111.678 100.388 111.954C100.208 112.236 99.9558 112.458 99.6318 112.62C99.3078 112.788 98.9238 112.872 98.4798 112.872ZM97.2468 109.074C97.2468 109.308 97.3008 109.521 97.4088 109.713C97.5168 109.905 97.6638 110.058 97.8498 110.172C98.0418 110.28 98.2548 110.334 98.4888 110.334C98.6988 110.334 98.8878 110.298 99.0558 110.226C99.2238 110.148 99.3648 110.046 99.4788 109.92C99.5988 109.788 99.6858 109.635 99.7398 109.461V108.678C99.6858 108.504 99.5988 108.357 99.4788 108.237C99.3588 108.111 99.2148 108.012 99.0468 107.94C98.8788 107.868 98.6928 107.832 98.4888 107.832C98.2548 107.832 98.0418 107.886 97.8498 107.994C97.6638 108.096 97.5168 108.24 97.4088 108.426C97.3008 108.612 97.2468 108.828 97.2468 109.074ZM102.912 107.229L102.993 108.093L102.957 107.976C103.083 107.706 103.278 107.49 103.542 107.328C103.806 107.16 104.118 107.076 104.478 107.076C104.832 107.076 105.123 107.181 105.351 107.391C105.585 107.601 105.705 107.874 105.711 108.21V111H104.784V108.534C104.778 108.342 104.721 108.186 104.613 108.066C104.505 107.94 104.337 107.874 104.109 107.868C103.905 107.868 103.719 107.931 103.551 108.057C103.383 108.177 103.251 108.342 103.155 108.552C103.059 108.762 103.011 109.005 103.011 109.281V111H102.084V107.229H102.912ZM108.227 111.081C107.951 111.081 107.684 111.033 107.426 110.937C107.168 110.835 106.955 110.688 106.787 110.496L107.183 109.974C107.345 110.124 107.507 110.238 107.669 110.316C107.837 110.388 107.996 110.424 108.146 110.424C108.266 110.424 108.374 110.412 108.47 110.388C108.566 110.358 108.644 110.31 108.704 110.244C108.764 110.178 108.794 110.091 108.794 109.983C108.794 109.857 108.752 109.758 108.668 109.686C108.584 109.614 108.476 109.554 108.344 109.506C108.212 109.458 108.071 109.413 107.921 109.371C107.603 109.269 107.363 109.125 107.201 108.939C107.039 108.747 106.958 108.522 106.958 108.264C106.958 108.066 107.006 107.88 107.102 107.706C107.204 107.526 107.357 107.379 107.561 107.265C107.765 107.151 108.017 107.094 108.317 107.094C108.593 107.094 108.836 107.127 109.046 107.193C109.256 107.253 109.451 107.358 109.631 107.508L109.271 108.066C109.163 107.958 109.034 107.877 108.884 107.823C108.74 107.763 108.608 107.73 108.488 107.724C108.38 107.724 108.281 107.742 108.191 107.778C108.101 107.808 108.029 107.856 107.975 107.922C107.921 107.982 107.894 108.054 107.894 108.138C107.888 108.258 107.927 108.357 108.011 108.435C108.101 108.507 108.215 108.567 108.353 108.615C108.491 108.657 108.626 108.702 108.758 108.75C108.944 108.804 109.109 108.879 109.253 108.975C109.397 109.065 109.511 109.176 109.595 109.308C109.679 109.44 109.721 109.608 109.721 109.812C109.721 110.034 109.667 110.244 109.559 110.442C109.451 110.634 109.286 110.79 109.064 110.91C108.842 111.024 108.563 111.081 108.227 111.081Z" fill="white"/>
</svg>
