<svg width="77" height="88" viewBox="0 0 77 88" fill="none" xmlns="http://www.w3.org/2000/svg">
<path d="M28.6896 19.0172L35.4112 24.0584C35.7614 24.3211 35.9001 24.781 35.7534 25.1934L28.1322 46.6282C28.0473 46.8671 28.0562 47.1294 28.1574 47.3619L37.1829 68.1206C37.515 68.8845 38.5808 68.9313 38.9786 68.1994L50.2757 47.4127C50.4178 47.1513 50.4361 46.8401 50.3255 46.5638L41.7659 25.1647C41.6069 24.7673 41.7185 24.3127 42.0436 24.0341L47.8744 19.0362C48.2377 18.7248 48.3295 18.1996 48.0933 17.7834L38.891 1.5699C38.5032 0.886652 37.5152 0.896869 37.1416 1.58799L28.4099 17.7417C28.1744 18.1775 28.2933 18.72 28.6896 19.0172Z" fill="#A30000"/>
<path d="M10.6684 8.17867L14.3623 12.7416C15.4208 14.0492 14.4902 16 12.8078 16H3.57913C2.01449 16 1.05579 17.7157 1.87581 19.0482L3.70332 22.0179C3.8973 22.3331 4 22.696 4 23.0661V60.6547C4 60.8832 4.04077 61.1155 4.11865 61.3303C12.5662 84.6364 30.2034 88.4953 38 87.5C55.7818 87.5 64.2183 78.8891 67.0843 72.9259C67.6528 71.7429 66.7142 70.5 65.4017 70.5H57.25C56.5596 70.5 56 69.9404 56 69.25C56 68.5596 56.5596 68 57.25 68H70C70.5523 68 71 67.5523 71 67C71 66.4477 70.5523 66 70 66H62.7361C61.2493 66 60.2823 64.4354 60.9472 63.1056L61.4472 62.1056C61.786 61.428 62.4785 61 63.2361 61H71C72.1046 61 73 60.1046 73 59V23.0042C73 22.6733 73.0821 22.3475 73.2391 22.056L74.9125 18.9482C75.63 17.6157 74.6649 16 73.1516 16H63.6922C62.0098 16 61.0792 14.0492 62.1378 12.7416L65.8225 8.18983C66.7908 6.99376 66.102 5.19805 64.5823 4.95627L50.0674 2.64708C48.4186 2.38478 47.181 4.14893 47.9312 5.64037C65.3557 40.2808 50.4 64.7957 39.3297 73.9581C38.5758 74.5821 37.4712 74.4912 36.7863 73.7921C13.3787 49.8997 19.9229 20.7967 27.7301 5.89894C28.536 4.36109 27.2517 2.4474 25.538 2.72637L11.9016 4.94625C10.3859 5.19299 9.70222 6.98509 10.6684 8.17867Z" fill="#2B3467"/>
</svg>
