<svg width="2630" height="1066" viewBox="0 0 2630 1066" fill="none" xmlns="http://www.w3.org/2000/svg">
<g clip-path="url(#clip0_1_199)">
<path fill-rule="evenodd" clip-rule="evenodd" d="M1567.66 132.855H540.143C531.982 132.855 524.597 136.158 519.251 141.498C513.904 146.84 510.598 154.22 510.598 162.371V865.67C510.598 873.818 513.905 881.198 519.254 886.541C524.6 891.882 531.985 895.187 540.143 895.187H1567.66C1575.82 895.187 1583.2 891.884 1588.55 886.544C1593.89 881.202 1597.2 873.822 1597.2 865.67V162.371C1597.2 154.224 1593.89 146.843 1588.54 141.5C1583.2 136.159 1575.81 132.855 1567.66 132.855Z" fill="white" stroke="#593CA3" stroke-width="8"/>
<path fill-rule="evenodd" clip-rule="evenodd" d="M1517.03 198.227H589.712C586.22 198.227 583.055 199.645 580.764 201.939C578.476 204.229 577.06 207.393 577.06 210.887V734.911C577.06 738.406 578.475 741.57 580.763 743.86C583.054 746.153 586.218 747.571 589.712 747.571H1517.03C1520.52 747.571 1523.69 746.153 1525.98 743.859C1528.27 741.569 1529.68 738.405 1529.68 734.911V210.887C1529.68 207.392 1528.27 204.228 1525.98 201.938C1523.69 199.645 1520.53 198.227 1517.03 198.227Z" fill="#AA96DD" stroke="#AA96DD" stroke-width="8"/>
<path fill-rule="evenodd" clip-rule="evenodd" d="M1132.33 895.187H976.518L965.999 1031.2H1142.85L1132.33 895.187Z" fill="white" stroke="#593CA3" stroke-width="8"/>
<path fill-rule="evenodd" clip-rule="evenodd" d="M1206.87 1061.78H901.988C901.696 1061.78 901.433 1061.67 901.242 1061.47C901.049 1061.28 900.931 1061.01 900.931 1060.72V1046.49C900.931 1042.27 902.643 1038.45 905.412 1035.68C908.181 1032.92 912.008 1031.2 916.234 1031.2H1192.62C1196.84 1031.2 1200.67 1032.92 1203.44 1035.68C1206.21 1038.45 1207.92 1042.27 1207.92 1046.49V1060.72C1207.92 1061.01 1207.81 1061.28 1207.61 1061.47C1207.42 1061.67 1207.16 1061.78 1206.87 1061.78Z" fill="white" stroke="#593CA3" stroke-width="8"/>
<path d="M1054.43 846.684C1065.21 846.684 1073.94 837.951 1073.94 827.178C1073.94 816.405 1065.21 807.672 1054.43 807.672C1043.65 807.672 1034.91 816.405 1034.91 827.178C1034.91 837.951 1043.65 846.684 1054.43 846.684Z" stroke="#593CA3" stroke-width="8"/>
<path d="M593.939 651.62H435.696C421.713 651.62 410.377 662.95 410.377 676.926V1036.48C410.377 1050.45 421.713 1061.78 435.696 1061.78H593.939C607.922 1061.78 619.258 1050.45 619.258 1036.48V676.926C619.258 662.95 607.922 651.62 593.939 651.62Z" fill="white" stroke="#593CA3" stroke-width="8"/>
<path fill-rule="evenodd" clip-rule="evenodd" d="M619.258 698.014H410.377V1000.94H619.258V698.014Z" fill="#593CA3" stroke="#593CA3" stroke-width="8"/>
<path d="M561.236 670.599H469.455C467.124 670.599 465.235 672.488 465.235 674.817C465.235 677.146 467.124 679.035 469.455 679.035H561.236C563.566 679.035 565.455 677.146 565.455 674.817C565.455 672.488 563.566 670.599 561.236 670.599Z" fill="#593CA3"/>
<path d="M527.266 1030.57C527.266 1023.93 521.882 1018.55 515.239 1018.55C508.597 1018.55 503.213 1023.93 503.213 1030.57C503.213 1037.21 508.597 1042.59 515.239 1042.59C521.882 1042.59 527.266 1037.21 527.266 1030.57Z" fill="#593CA3"/>
<path d="M469.454 864.609C478.194 864.609 485.279 857.528 485.279 848.793C485.279 840.058 478.194 832.977 469.454 832.977C460.715 832.977 453.63 840.058 453.63 848.793C453.63 857.528 460.715 864.609 469.454 864.609Z" fill="#AA96DD" stroke="#AA96DD" stroke-width="8"/>
<path d="M576.005 821.379H510.598C508.267 821.379 506.378 823.267 506.378 825.596C506.378 827.926 508.267 829.814 510.598 829.814H576.005C578.335 829.814 580.225 827.926 580.225 825.596C580.225 823.267 578.335 821.379 576.005 821.379Z" fill="white"/>
<path d="M554.906 844.576H510.598C508.267 844.576 506.378 846.464 506.378 848.793C506.378 851.123 508.267 853.011 510.598 853.011H554.906C557.236 853.011 559.126 851.123 559.126 848.793C559.126 846.464 557.236 844.576 554.906 844.576Z" fill="white"/>
<path d="M533.807 867.772H510.598C508.267 867.772 506.378 869.661 506.378 871.99C506.378 874.319 508.267 876.208 510.598 876.208H533.807C536.137 876.208 538.026 874.319 538.026 871.99C538.026 869.661 536.137 867.772 533.807 867.772Z" fill="white"/>
<path d="M303.299 850.902C392.734 850.902 465.235 778.439 465.235 689.051C465.235 599.664 392.734 527.201 303.299 527.201C213.865 527.201 141.364 599.664 141.364 689.051C141.364 778.439 213.865 850.902 303.299 850.902Z" fill="#5BE9B9" stroke="#593CA3" stroke-width="8"/>
<path fill-rule="evenodd" clip-rule="evenodd" d="M2046.62 493.46H1325.01C1316.86 493.46 1309.47 496.764 1304.13 502.106C1298.79 507.449 1295.48 514.83 1295.48 522.983V987.975C1295.48 996.123 1298.79 1003.5 1304.13 1008.85C1309.48 1014.19 1316.86 1017.5 1325.01 1017.5H2046.62C2054.78 1017.5 2062.16 1014.19 2067.5 1008.85C2072.84 1003.51 2076.15 996.128 2076.15 987.975V522.983C2076.15 514.835 2072.84 507.453 2067.5 502.109C2062.15 496.766 2054.77 493.46 2046.62 493.46Z" fill="white" stroke="#593CA3" stroke-width="8"/>
<path fill-rule="evenodd" clip-rule="evenodd" d="M2128.91 1017.5H1242.73C1242.44 1017.5 1242.18 1017.62 1241.99 1017.8C1241.8 1018 1241.68 1018.26 1241.68 1018.55V1039.64C1241.68 1045.76 1244.16 1051.29 1248.17 1055.3C1252.18 1059.3 1257.72 1061.78 1263.84 1061.78H2107.79C2113.91 1061.78 2119.45 1059.3 2123.46 1055.3C2127.47 1051.29 2129.95 1045.75 2129.95 1039.64V1018.55C2129.95 1018.26 2129.83 1018 2129.64 1017.8C2129.45 1017.62 2129.19 1017.5 2128.91 1017.5Z" fill="white" stroke="#593CA3" stroke-width="8"/>
<path fill-rule="evenodd" clip-rule="evenodd" d="M1744.14 1017.97L1626.01 1017.97C1628.06 1023.39 1631.52 1028.11 1635.93 1031.71C1641.56 1036.3 1648.75 1039.06 1656.59 1039.06H1713.57C1721.4 1039.06 1728.59 1036.3 1734.22 1031.71C1738.63 1028.11 1742.09 1023.38 1744.14 1017.97Z" fill="white" stroke="#593CA3" stroke-width="8"/>
<path d="M2036.49 538.799H1334.52C1329.86 538.799 1326.08 542.576 1326.08 547.234V964.619C1326.08 969.278 1329.86 973.054 1334.52 973.054H2036.49C2041.15 973.054 2044.93 969.278 2044.93 964.619V547.234C2044.93 542.576 2041.15 538.799 2036.49 538.799Z" fill="#5BE9B9"/>
<path d="M1030.69 212.989C1033.6 212.989 1035.96 210.629 1035.96 207.717C1035.96 204.805 1033.6 202.445 1030.69 202.445C1027.78 202.445 1025.42 204.805 1025.42 207.717C1025.42 210.629 1027.78 212.989 1030.69 212.989Z" fill="#293347"/>
<path fill-rule="evenodd" clip-rule="evenodd" d="M1207.92 62.2097H737.413V520.876C737.413 526.702 739.774 531.972 743.592 535.787C747.412 539.604 752.691 541.962 758.521 541.962H1186.81C1192.64 541.962 1197.92 539.602 1201.74 535.786C1205.56 531.97 1207.92 526.699 1207.92 520.876V62.2097Z" fill="#593CA3" stroke="#593CA3" stroke-width="8"/>
<path fill-rule="evenodd" clip-rule="evenodd" d="M1186.81 4.21761H758.521C752.691 4.21761 747.414 6.57821 743.595 10.3951C739.775 14.212 737.413 19.4851 737.413 25.3096V53.7745H1207.92V25.3096C1207.92 19.4868 1205.56 14.2136 1201.74 10.3962C1197.92 6.57924 1192.64 4.21761 1186.81 4.21761Z" fill="white" stroke="#593CA3" stroke-width="8"/>
<path d="M774.336 39.0129C779.58 39.0129 783.831 34.7642 783.831 29.5232C783.831 24.2823 779.58 20.0336 774.336 20.0336C769.092 20.0336 764.842 24.2823 764.842 29.5232C764.842 34.7642 769.092 39.0129 774.336 39.0129Z" fill="#593CA3"/>
<path d="M805.985 39.0129C811.229 39.0129 815.479 34.7642 815.479 29.5232C815.479 24.2823 811.229 20.0336 805.985 20.0336C800.741 20.0336 796.49 24.2823 796.49 29.5232C796.49 34.7642 800.741 39.0129 805.985 39.0129Z" fill="#6E07F3"/>
<path d="M837.633 39.0129C842.877 39.0129 847.128 34.7642 847.128 29.5232C847.128 24.2823 842.877 20.0336 837.633 20.0336C832.39 20.0336 828.139 24.2823 828.139 29.5232C828.139 34.7642 832.39 39.0129 837.633 39.0129Z" fill="#5BE9B9"/>
<path opacity="0.54" d="M802.82 361.66H792.27C789.94 361.66 788.051 363.548 788.051 365.877C788.051 368.207 789.94 370.095 792.27 370.095H802.82C805.15 370.095 807.04 368.207 807.04 365.877C807.04 363.548 805.15 361.66 802.82 361.66Z" fill="#535B6B"/>
<path opacity="0.54" d="M802.82 150.779H792.27C789.94 150.779 788.051 152.668 788.051 154.997C788.051 157.326 789.94 159.215 792.27 159.215H802.82C805.15 159.215 807.04 157.326 807.04 154.997C807.04 152.668 805.15 150.779 802.82 150.779Z" fill="#535B6B"/>
<path fill-rule="evenodd" clip-rule="evenodd" d="M823.919 150.779H852.403C854.733 150.779 856.623 152.668 856.623 154.997C856.623 157.326 854.733 159.215 852.403 159.215H823.919C821.588 159.215 819.699 157.326 819.699 154.997C819.699 152.668 821.588 150.779 823.919 150.779Z" fill="#6E07F3"/>
<path fill-rule="evenodd" clip-rule="evenodd" d="M871.392 150.779H899.876C902.206 150.779 904.096 152.668 904.096 154.997C904.096 157.326 902.206 159.215 899.876 159.215H871.392C869.061 159.215 867.172 157.326 867.172 154.997C867.172 152.668 869.061 150.779 871.392 150.779Z" fill="#5BE9B9"/>
<path fill-rule="evenodd" clip-rule="evenodd" d="M918.865 150.779H971.613C973.943 150.779 975.832 152.668 975.832 154.997C975.832 157.326 973.943 159.215 971.613 159.215H918.865C916.534 159.215 914.645 157.326 914.645 154.997C914.645 152.668 916.534 150.779 918.865 150.779Z" fill="#6E07F3"/>
<path fill-rule="evenodd" clip-rule="evenodd" d="M990.602 150.779H1068.67C1071 150.779 1072.89 152.668 1072.89 154.997C1072.89 157.326 1071 159.215 1068.67 159.215H990.602C988.271 159.215 986.382 157.326 986.382 154.997C986.382 152.668 988.271 150.779 990.602 150.779Z" fill="#6E07F3"/>
<path opacity="0.54" d="M802.82 192.955H792.27C789.94 192.955 788.051 194.844 788.051 197.173C788.051 199.502 789.94 201.391 792.27 201.391H802.82C805.15 201.391 807.04 199.502 807.04 197.173C807.04 194.844 805.15 192.955 802.82 192.955Z" fill="#535B6B"/>
<path opacity="0.54" d="M802.82 235.132H792.27C789.94 235.132 788.051 237.02 788.051 239.349C788.051 241.678 789.94 243.567 792.27 243.567H802.82C805.15 243.567 807.04 241.678 807.04 239.349C807.04 237.02 805.15 235.132 802.82 235.132Z" fill="#535B6B"/>
<path opacity="0.54" d="M802.82 277.308H792.27C789.94 277.308 788.051 279.196 788.051 281.525C788.051 283.855 789.94 285.743 792.27 285.743H802.82C805.15 285.743 807.04 283.855 807.04 281.525C807.04 279.196 805.15 277.308 802.82 277.308Z" fill="#535B6B"/>
<path opacity="0.54" d="M802.82 319.484H792.27C789.94 319.484 788.051 321.372 788.051 323.701C788.051 326.031 789.94 327.919 792.27 327.919H802.82C805.15 327.919 807.04 326.031 807.04 323.701C807.04 321.372 805.15 319.484 802.82 319.484Z" fill="#535B6B"/>
<path opacity="0.54" d="M802.82 403.836H792.27C789.94 403.836 788.051 405.724 788.051 408.053C788.051 410.383 789.94 412.271 792.27 412.271H802.82C805.15 412.271 807.04 410.383 807.04 408.053C807.04 405.724 805.15 403.836 802.82 403.836Z" fill="#535B6B"/>
<path opacity="0.54" d="M802.82 446.012H792.27C789.94 446.012 788.051 447.9 788.051 450.229C788.051 452.559 789.94 454.447 792.27 454.447H802.82C805.15 454.447 807.04 452.559 807.04 450.229C807.04 447.9 805.15 446.012 802.82 446.012Z" fill="#535B6B"/>
<path d="M889.326 192.955H823.919C821.588 192.955 819.699 194.844 819.699 197.173C819.699 199.502 821.588 201.391 823.919 201.391H889.326C891.657 201.391 893.546 199.502 893.546 197.173C893.546 194.844 891.657 192.955 889.326 192.955Z" fill="#6E07F3"/>
<path d="M1026.47 192.955H908.315C905.985 192.955 904.096 194.844 904.096 197.173C904.096 199.502 905.985 201.391 908.315 201.391H1026.47C1028.8 201.391 1030.69 199.502 1030.69 197.173C1030.69 194.844 1028.8 192.955 1026.47 192.955Z" fill="#5BE9B9"/>
<path d="M1089.77 192.955H1045.46C1043.13 192.955 1041.24 194.844 1041.24 197.173C1041.24 199.502 1043.13 201.391 1045.46 201.391H1089.77C1092.1 201.391 1093.99 199.502 1093.99 197.173C1093.99 194.844 1092.1 192.955 1089.77 192.955Z" fill="#6E07F3"/>
<path d="M868.227 235.132H823.919C821.588 235.132 819.699 237.02 819.699 239.349C819.699 241.678 821.588 243.567 823.919 243.567H868.227C870.558 243.567 872.447 241.678 872.447 239.349C872.447 237.02 870.558 235.132 868.227 235.132Z" fill="#5BE9B9"/>
<path d="M931.524 235.132H887.216C884.886 235.132 882.996 237.02 882.996 239.349C882.996 241.678 884.886 243.567 887.216 243.567H931.524C933.855 243.567 935.744 241.678 935.744 239.349C935.744 237.02 933.855 235.132 931.524 235.132Z" fill="#6E07F3"/>
<path d="M973.722 235.132H950.514C948.183 235.132 946.294 237.02 946.294 239.349C946.294 241.678 948.183 243.567 950.514 243.567H973.722C976.053 243.567 977.942 241.678 977.942 239.349C977.942 237.02 976.053 235.132 973.722 235.132Z" fill="#6E07F3"/>
<path d="M920.975 277.308H823.919C821.588 277.308 819.699 279.196 819.699 281.525C819.699 283.855 821.588 285.743 823.919 285.743H920.975C923.305 285.743 925.195 283.855 925.195 281.525C925.195 279.196 923.305 277.308 920.975 277.308Z" fill="#6E07F3"/>
<path d="M1005.37 277.308H939.964C937.633 277.308 935.744 279.196 935.744 281.525C935.744 283.855 937.633 285.743 939.964 285.743H1005.37C1007.7 285.743 1009.59 283.855 1009.59 281.525C1009.59 279.196 1007.7 277.308 1005.37 277.308Z" fill="#6E07F3"/>
<path d="M920.975 319.484H823.919C821.588 319.484 819.699 321.372 819.699 323.701C819.699 326.031 821.588 327.919 823.919 327.919H920.975C923.305 327.919 925.195 326.031 925.195 323.701C925.195 321.372 923.305 319.484 920.975 319.484Z" fill="#6E07F3"/>
<path d="M1068.67 319.484H939.964C937.633 319.484 935.744 321.372 935.744 323.701C935.744 326.031 937.633 327.919 939.964 327.919H1068.67C1071 327.919 1072.89 326.031 1072.89 323.701C1072.89 321.372 1071 319.484 1068.67 319.484Z" fill="#5BE9B9"/>
<path d="M889.326 361.66H823.919C821.588 361.66 819.699 363.548 819.699 365.877C819.699 368.207 821.588 370.095 823.919 370.095H889.326C891.657 370.095 893.546 368.207 893.546 365.877C893.546 363.548 891.657 361.66 889.326 361.66Z" fill="#6E07F3"/>
<path d="M973.722 361.66H908.315C905.985 361.66 904.096 363.548 904.096 365.877C904.096 368.207 905.985 370.095 908.315 370.095H973.722C976.053 370.095 977.942 368.207 977.942 365.877C977.942 363.548 976.053 361.66 973.722 361.66Z" fill="#5BE9B9"/>
<path d="M1026.47 361.66H992.712C990.381 361.66 988.492 363.548 988.492 365.877C988.492 368.207 990.381 370.095 992.712 370.095H1026.47C1028.8 370.095 1030.69 368.207 1030.69 365.877C1030.69 363.548 1028.8 361.66 1026.47 361.66Z" fill="#6E07F3"/>
<path d="M952.623 403.836H823.919C821.588 403.836 819.699 405.724 819.699 408.053C819.699 410.383 821.588 412.271 823.919 412.271H952.623C954.954 412.271 956.843 410.383 956.843 408.053C956.843 405.724 954.954 403.836 952.623 403.836Z" fill="#6E07F3"/>
<path d="M878.777 446.012H823.919C821.588 446.012 819.699 447.9 819.699 450.229C819.699 452.559 821.588 454.447 823.919 454.447H878.777C881.107 454.447 882.996 452.559 882.996 450.229C882.996 447.9 881.107 446.012 878.777 446.012Z" fill="#5BE9B9"/>
<path fill-rule="evenodd" clip-rule="evenodd" d="M2259.71 384.857H1681.6V796.069C1681.6 804.225 1684.9 811.606 1690.25 816.949C1695.6 822.292 1702.99 825.596 1711.15 825.596H2230.16C2238.33 825.596 2245.71 822.292 2251.06 816.951C2256.41 811.607 2259.71 804.224 2259.71 796.069V384.857Z" fill="white" stroke="#593CA3" stroke-width="8"/>
<path fill-rule="evenodd" clip-rule="evenodd" d="M2230.16 332.136H1711.15C1702.98 332.136 1695.6 335.439 1690.25 340.778C1684.9 346.12 1681.6 353.5 1681.6 361.652V393.292H2259.71V361.652C2259.71 353.501 2256.4 346.122 2251.06 340.78C2245.71 335.44 2238.32 332.136 2230.16 332.136Z" fill="#593CA3" stroke="#593CA3" stroke-width="8"/>
<path d="M1726.96 372.204C1732.2 372.204 1736.45 367.955 1736.45 362.714C1736.45 357.473 1732.2 353.225 1726.96 353.225C1721.72 353.225 1717.46 357.473 1717.46 362.714C1717.46 367.955 1721.72 372.204 1726.96 372.204Z" fill="white"/>
<path d="M1758.61 372.204C1763.85 372.204 1768.1 367.955 1768.1 362.714C1768.1 357.473 1763.85 353.225 1758.61 353.225C1753.36 353.225 1749.11 357.473 1749.11 362.714C1749.11 367.955 1753.36 372.204 1758.61 372.204Z" fill="#6E07F3"/>
<path d="M1790.26 372.204C1795.5 372.204 1799.75 367.955 1799.75 362.714C1799.75 357.473 1795.5 353.225 1790.26 353.225C1785.01 353.225 1780.76 357.473 1780.76 362.714C1780.76 367.955 1785.01 372.204 1790.26 372.204Z" fill="#5BE9B9"/>
<path d="M2039.23 710.667C2097.49 710.667 2144.72 663.459 2144.72 605.227C2144.72 546.994 2097.49 499.786 2039.23 499.786C1980.96 499.786 1933.73 546.994 1933.73 605.227C1933.73 663.459 1980.96 710.667 2039.23 710.667Z" stroke="#AA96DD" stroke-width="9"/>
<path fill-rule="evenodd" clip-rule="evenodd" d="M2052.94 487.134H2027.62V512.439H2052.94V487.134Z" fill="#FFFFFE" stroke="#5BE9B9" stroke-width="8"/>
<path fill-rule="evenodd" clip-rule="evenodd" d="M2051.89 698.014H2026.57V723.319H2051.89V698.014Z" fill="#FFFFFE" stroke="#5BE9B9" stroke-width="8"/>
<path fill-rule="evenodd" clip-rule="evenodd" d="M1946.39 593.628H1921.07V618.934H1946.39V593.628Z" fill="#FFFFFE" stroke="#5BE9B9" stroke-width="8"/>
<path d="M2144.72 510.33V589.41" stroke="#593CA3" stroke-width="8" stroke-linecap="square"/>
<path d="M2144.72 621.043V700.123" stroke="#593CA3" stroke-width="8" stroke-linecap="square"/>
<path d="M2144.72 519.82C2151.71 519.82 2157.38 514.155 2157.38 507.167C2157.38 500.179 2151.71 494.514 2144.72 494.514C2137.73 494.514 2132.06 500.179 2132.06 507.167C2132.06 514.155 2137.73 519.82 2144.72 519.82Z" fill="#593CA3"/>
<path d="M2144.72 720.156C2151.71 720.156 2157.38 714.491 2157.38 707.503C2157.38 700.516 2151.71 694.851 2144.72 694.851C2137.73 694.851 2132.06 700.516 2132.06 707.503C2132.06 714.491 2137.73 720.156 2144.72 720.156Z" fill="#593CA3"/>
<path fill-rule="evenodd" clip-rule="evenodd" d="M2156.33 593.628H2131.01V618.934H2156.33V593.628Z" fill="#FFFFFE" stroke="#5BE9B9" stroke-width="8"/>
<path d="M1841.95 473.426H1793.42C1786.43 473.426 1780.76 479.091 1780.76 486.079V534.582C1780.76 541.57 1786.43 547.234 1793.42 547.234H1841.95C1848.94 547.234 1854.61 541.57 1854.61 534.582V486.079C1854.61 479.091 1848.94 473.426 1841.95 473.426Z" fill="#593CA3"/>
<path d="M1841.95 568.322H1793.42C1786.43 568.322 1780.76 573.987 1780.76 580.975V629.478C1780.76 636.466 1786.43 642.131 1793.42 642.131H1841.95C1848.94 642.131 1854.61 636.466 1854.61 629.478V580.975C1854.61 573.987 1848.94 568.322 1841.95 568.322Z" fill="#5BE9B9"/>
<path d="M1841.95 663.219H1793.42C1786.43 663.219 1780.76 668.883 1780.76 675.871V724.374C1780.76 731.362 1786.43 737.027 1793.42 737.027H1841.95C1848.94 737.027 1854.61 731.362 1854.61 724.374V675.871C1854.61 668.883 1848.94 663.219 1841.95 663.219Z" fill="#AA96DD"/>
<path d="M2562.48 1023.82C2597.44 1023.82 2625.78 995.5 2625.78 960.56C2625.78 925.62 2597.44 897.296 2562.48 897.296C2527.52 897.296 2499.19 925.62 2499.19 960.56C2499.19 995.5 2527.52 1023.82 2562.48 1023.82Z" fill="white" stroke="#593CA3" stroke-width="8"/>
<path d="M2562.48 997.464C2582.88 997.464 2599.41 980.941 2599.41 960.56C2599.41 940.178 2582.88 923.656 2562.48 923.656C2542.09 923.656 2525.56 940.178 2525.56 960.56C2525.56 980.941 2542.09 997.464 2562.48 997.464Z" fill="white" stroke="#593CA3" stroke-width="8"/>
<path d="M2478.09 885.697C2489.74 885.697 2499.19 876.256 2499.19 864.609C2499.19 852.963 2489.74 843.521 2478.09 843.521C2466.43 843.521 2456.99 852.963 2456.99 864.609C2456.99 876.256 2466.43 885.697 2478.09 885.697Z" fill="#FFFFFE" stroke="#593CA3" stroke-width="8"/>
<path fill-rule="evenodd" clip-rule="evenodd" d="M2564.52 859.337H2385.25C2384.09 859.337 2383.03 859.809 2382.27 860.573C2381.5 861.336 2381.03 862.39 2381.03 863.555V1040.69C2381.03 1046.52 2383.39 1051.79 2387.21 1055.61C2391.03 1059.42 2396.3 1061.78 2402.13 1061.78H2547.64C2553.47 1061.78 2558.74 1059.42 2562.56 1055.61C2566.38 1051.79 2568.74 1046.52 2568.74 1040.69V863.555C2568.74 862.39 2568.27 861.336 2567.5 860.573C2566.74 859.809 2565.68 859.337 2564.52 859.337Z" fill="white" stroke="#593CA3" stroke-width="8"/>
<path fill-rule="evenodd" clip-rule="evenodd" d="M2517.12 916.275H2479.14C2476.81 916.275 2474.7 917.219 2473.17 918.746C2471.65 920.272 2470.7 922.381 2470.7 924.71V975.321C2470.7 977.651 2471.65 979.76 2473.17 981.286C2474.7 982.813 2476.81 983.757 2479.14 983.757H2517.12C2519.45 983.757 2521.56 982.813 2523.09 981.286C2524.61 979.76 2525.56 977.651 2525.56 975.321V924.71C2525.56 922.381 2524.61 920.272 2523.09 918.746C2521.56 917.219 2519.45 916.275 2517.12 916.275Z" fill="#5BE9B9" stroke="#593CA3" stroke-width="8"/>
<path d="M2497.6 860.919V908.894" stroke="#593CA3" stroke-width="8" stroke-linecap="square"/>
<path fill-rule="evenodd" clip-rule="evenodd" d="M2260.77 1004C2243.64 1004 2228.13 1010.94 2216.9 1022.16C2206.65 1032.4 2199.97 1046.22 2198.89 1061.57H2322.64C2321.56 1046.22 2314.88 1032.4 2304.63 1022.16C2293.4 1010.94 2277.9 1004 2260.77 1004Z" fill="white" stroke="#593CA3" stroke-width="8.4"/>
<path d="M2264.99 1009.06C2264.99 1006.73 2263.1 1004.84 2260.77 1004.84C2258.44 1004.84 2256.55 1006.73 2256.55 1009.06V1014.33C2256.55 1016.66 2258.44 1018.55 2260.77 1018.55C2263.1 1018.55 2264.99 1016.66 2264.99 1014.33V1009.06Z" fill="#593CA3"/>
<path fill-rule="evenodd" clip-rule="evenodd" d="M321.761 937.363H66.4627C49.2748 937.363 33.7141 944.326 22.4503 955.584C11.1866 966.842 4.21985 982.394 4.21985 999.573C4.21985 1016.75 11.1866 1032.3 22.4503 1043.56C33.7141 1054.82 49.2748 1061.78 66.4627 1061.78H321.761C323.509 1061.78 325.091 1061.08 326.237 1059.93C327.382 1058.79 328.091 1057.2 328.091 1055.46V1045.67C328.091 1043.45 327.235 1041.43 325.827 1039.92C324.419 1038.41 322.459 1037.41 320.25 1037.25C305.646 1036.21 294.791 1032.51 287.513 1026.49C279.844 1020.14 275.868 1011.22 275.868 999.573C275.868 987.911 279.852 978.899 287.61 972.402C294.941 966.263 305.886 962.365 320.653 961.037C322.765 960.786 324.621 959.766 325.951 958.275C327.286 956.779 328.091 954.807 328.091 952.662V943.689C328.091 941.942 327.382 940.361 326.237 939.216C325.091 938.071 323.509 937.363 321.761 937.363Z" fill="#AA96DD" stroke="#593CA3" stroke-width="8"/>
<path fill-rule="evenodd" clip-rule="evenodd" d="M308.876 961.614H65.4072C54.9197 961.614 45.4252 965.863 38.5524 972.732C31.6797 979.601 27.4288 989.091 27.4288 999.573C27.4288 1010.05 31.6797 1019.54 38.5524 1026.41C45.4252 1033.28 54.9197 1037.53 65.4072 1037.53C180.288 1037.53 261.975 1037.75 310.469 1038.19C301.981 1035.9 292.246 1032.65 285.334 1025.55C279.781 1019.85 275.868 1011.74 275.868 999.573C275.868 987.292 279.855 979.146 285.49 973.466C291.958 966.946 300.847 963.767 308.876 961.614Z" fill="white" stroke="#593CA3" stroke-width="8"/>
<path d="M61.1082 1009.56H274.367C276.369 1009.56 278.008 1011.22 278.008 1013.28C278.007 1015.34 276.369 1017 274.367 1017H61.1082C59.1061 1017 57.4676 1015.34 57.4675 1013.28C57.4675 1011.22 59.1061 1009.56 61.1082 1009.56Z" fill="#593CA3" stroke="#593CA3"/>
<path d="M61.1082 982.148H274.367C276.369 982.148 278.008 983.804 278.008 985.866C278.007 987.927 276.369 989.583 274.367 989.583H61.1082C59.1061 989.583 57.4676 987.927 57.4675 985.866C57.4675 983.804 59.1061 982.148 61.1082 982.148Z" fill="#593CA3" stroke="#593CA3"/>
<path d="M263.901 726.859C258.724 722.258 253.547 717.658 248.369 713.058C240.119 705.735 231.892 698.388 223.642 691.065C221.75 689.399 219.859 687.709 217.991 686.042C217.991 688.249 217.991 690.478 217.991 692.685C223.169 688.084 228.346 683.484 233.523 678.884C241.774 671.561 250.001 664.214 258.251 656.891C260.142 655.225 262.034 653.535 263.901 651.868C265.745 650.225 265.722 646.869 263.901 645.226C261.939 643.419 259.197 643.465 257.211 645.226C252.034 649.826 246.856 654.427 241.679 659.027C233.429 666.35 225.202 673.696 216.951 681.019C215.06 682.686 213.169 684.376 211.301 686.042C209.481 687.662 209.481 691.065 211.301 692.685C216.478 697.285 221.656 701.885 226.833 706.486C235.084 713.809 243.31 721.155 251.561 728.478C253.452 730.145 255.343 731.835 257.211 733.501C259.055 735.144 262.105 735.449 263.901 733.501C265.556 731.717 265.863 728.619 263.901 726.859Z" fill="#593CA3"/>
<path d="M342.74 651.879C347.917 656.48 353.094 661.08 358.272 665.68C366.522 673.003 374.749 680.35 383 687.673C384.891 689.339 386.782 691.029 388.65 692.696C388.65 690.49 388.65 688.26 388.65 686.054C383.472 690.654 378.295 695.254 373.118 699.855C364.867 707.178 356.64 714.524 348.39 721.847C346.499 723.514 344.607 725.204 342.74 726.87C340.896 728.513 340.919 731.869 342.74 733.512C344.702 735.32 347.444 735.273 349.43 733.512C354.607 728.912 359.785 724.312 364.962 719.711C373.212 712.388 381.439 705.042 389.69 697.719C391.581 696.052 393.472 694.362 395.34 692.696C397.16 691.076 397.16 687.673 395.34 686.054C390.163 681.453 384.985 676.853 379.808 672.252C371.558 664.929 363.331 657.583 355.08 650.26C353.189 648.593 351.298 646.903 349.43 645.237C347.586 643.594 344.536 643.289 342.74 645.237C341.085 647.021 340.778 650.119 342.74 651.879Z" fill="#593CA3"/>
<path d="M286.46 754.5C287.879 750.275 289.274 746.05 290.692 741.802C294.073 731.639 297.453 721.5 300.834 711.336C304.9 699.084 308.966 686.856 313.056 674.604C316.578 664.018 320.101 653.433 323.623 642.847C325.302 637.707 327.193 632.59 328.753 627.38C328.777 627.309 328.8 627.239 328.824 627.169C329.604 624.845 327.926 621.934 325.514 621.395C322.914 620.808 320.526 622.169 319.699 624.681C318.28 628.905 316.886 633.13 315.467 637.379C312.087 647.542 308.706 657.681 305.325 667.844C301.259 680.096 297.193 692.325 293.103 704.577C289.581 715.162 286.058 725.748 282.536 736.333C280.857 741.45 278.966 746.567 277.406 751.777C277.382 751.848 277.359 751.918 277.335 751.989C276.555 754.312 278.233 757.223 280.645 757.763C283.245 758.349 285.633 756.988 286.46 754.5Z" fill="#593CA3"/>
</g>
<defs>
<clipPath id="clip0_1_199">
<rect width="2630" height="1066" fill="white"/>
</clipPath>
</defs>
</svg>
