<svg width="235" height="147" viewBox="0 0 235 147" fill="none" xmlns="http://www.w3.org/2000/svg">
<path d="M107.128 19.2985L114.217 24.6153C114.587 24.8924 114.733 25.3774 114.578 25.8124L106.54 48.4192C106.451 48.6712 106.46 48.9478 106.567 49.193L116.086 71.0868C116.436 71.8925 117.56 71.9418 117.98 71.1699L129.894 49.2466C130.044 48.9709 130.064 48.6427 129.947 48.3513L120.919 25.7821C120.752 25.363 120.869 24.8835 121.212 24.5897L127.362 19.3185C127.745 18.9901 127.842 18.4362 127.593 17.9972L117.887 0.897163C117.478 0.176555 116.436 0.187331 116.042 0.916242L106.833 17.9532C106.585 18.4129 106.71 18.985 107.128 19.2985Z" fill="#B70F0F"/>
<path d="M0.359127 119.119V101.399H0.382754L9.50295 114.323L8.41608 114.087L17.489 101.399H17.5363V119.119H15.0318V107.093L15.1972 108.392L8.86501 117.347H8.81775L2.36746 108.392L2.79275 107.211V119.119H0.359127ZM20.6 119.119L28.1371 101.281H28.2789L35.816 119.119H32.9335L27.4519 105.226L29.2712 104.021L23.0808 119.119H20.6ZM25.1837 112.693H31.2796L32.1538 114.866H24.4276L25.1837 112.693ZM38.0508 101.966L43.5796 115.764L42.1383 115.504L47.3128 101.966H50.2898L42.6582 119.923L35.0501 101.966H38.0508ZM53.5902 101.966H64.8605V104.399H56.1183V109.29H63.8917V111.724H56.1183V116.686H65.1912V119.119H53.5902V101.966ZM73.7743 101.966C74.6721 101.966 75.4991 102.092 76.2552 102.344C77.027 102.58 77.6807 102.927 78.2163 103.383C78.7676 103.84 79.1929 104.407 79.4921 105.085C79.8072 105.746 79.9647 106.518 79.9647 107.4C79.9647 108.077 79.8623 108.747 79.6575 109.408C79.4528 110.07 79.122 110.669 78.6652 111.204C78.2084 111.74 77.6098 112.173 76.8695 112.504C76.1292 112.819 75.2077 112.976 74.1051 112.976H71.6006V119.119H69.0724V101.966H73.7743ZM74.0578 110.566C74.7037 110.566 75.2392 110.464 75.6645 110.259C76.1056 110.054 76.4442 109.802 76.6805 109.503C76.9325 109.188 77.1058 108.857 77.2003 108.511C77.3105 108.148 77.3657 107.802 77.3657 107.471C77.3657 107.156 77.3105 106.825 77.2003 106.479C77.1058 106.132 76.9325 105.801 76.6805 105.486C76.4442 105.171 76.1213 104.911 75.7118 104.707C75.3022 104.502 74.7982 104.399 74.1996 104.399H71.6006V110.566H74.0578ZM76.964 112.031L81.406 119.119H78.4762L73.9633 112.102L76.964 112.031ZM84.7857 101.966H87.3138V119.119H84.7857V101.966ZM104.764 117.82C104.512 117.993 104.134 118.206 103.63 118.458C103.141 118.694 102.559 118.899 101.881 119.072C101.22 119.245 100.487 119.324 99.684 119.308C98.3451 119.293 97.1401 119.056 96.069 118.599C95.0136 118.143 94.1158 117.521 93.3754 116.733C92.6351 115.93 92.0602 115.016 91.6506 113.992C91.2568 112.953 91.0599 111.85 91.0599 110.684C91.0599 109.393 91.2647 108.211 91.6743 107.14C92.0838 106.053 92.6666 105.108 93.4227 104.305C94.1945 103.502 95.0924 102.879 96.1162 102.438C97.1558 101.997 98.2899 101.777 99.5186 101.777C100.574 101.777 101.527 101.919 102.377 102.202C103.228 102.486 103.945 102.816 104.528 103.194L103.535 105.557C103.078 105.242 102.511 104.943 101.834 104.659C101.172 104.36 100.432 104.21 99.6131 104.21C98.8097 104.21 98.0458 104.376 97.3212 104.707C96.6124 105.022 95.9823 105.471 95.431 106.053C94.8955 106.62 94.4702 107.29 94.1551 108.062C93.8401 108.818 93.6826 109.645 93.6826 110.543C93.6826 111.456 93.8244 112.299 94.1079 113.071C94.3914 113.843 94.7931 114.512 95.3129 115.079C95.8484 115.646 96.4864 116.087 97.2267 116.402C97.967 116.717 98.8019 116.875 99.7312 116.875C100.613 116.875 101.385 116.741 102.047 116.473C102.724 116.205 103.275 115.898 103.701 115.552L104.764 117.82ZM111.103 108.723L111.032 109.574L111.387 109.078L118.097 101.966H121.358L114.269 109.408L121.688 119.119H118.499L112.426 110.991L111.103 112.291V119.119H108.552V101.966H111.103V108.723ZM132.225 119.119V101.966H136.998C138.699 101.966 140.148 102.226 141.345 102.745C142.543 103.265 143.503 103.95 144.228 104.801C144.968 105.652 145.504 106.597 145.835 107.636C146.181 108.676 146.354 109.723 146.354 110.779C146.354 112.055 146.126 113.205 145.669 114.228C145.212 115.252 144.59 116.134 143.803 116.875C143.015 117.599 142.109 118.158 141.086 118.552C140.062 118.93 138.975 119.119 137.825 119.119H132.225ZM134.753 116.686H137.352C138.282 116.686 139.132 116.552 139.904 116.284C140.692 116.016 141.369 115.622 141.936 115.103C142.519 114.583 142.968 113.945 143.283 113.189C143.598 112.433 143.755 111.566 143.755 110.59C143.755 109.534 143.574 108.621 143.212 107.849C142.865 107.061 142.401 106.416 141.818 105.912C141.235 105.392 140.581 105.014 139.857 104.777C139.148 104.525 138.424 104.399 137.683 104.399H134.753V116.686ZM154.809 101.966C155.707 101.966 156.534 102.092 157.29 102.344C158.062 102.58 158.716 102.927 159.251 103.383C159.802 103.84 160.228 104.407 160.527 105.085C160.842 105.746 161 106.518 161 107.4C161 108.077 160.897 108.747 160.692 109.408C160.488 110.07 160.157 110.669 159.7 111.204C159.243 111.74 158.645 112.173 157.904 112.504C157.164 112.819 156.243 112.976 155.14 112.976H152.635V119.119H150.107V101.966H154.809ZM155.093 110.566C155.738 110.566 156.274 110.464 156.699 110.259C157.14 110.054 157.479 109.802 157.715 109.503C157.967 109.188 158.141 108.857 158.235 108.511C158.345 108.148 158.401 107.802 158.401 107.471C158.401 107.156 158.345 106.825 158.235 106.479C158.141 106.132 157.967 105.801 157.715 105.486C157.479 105.171 157.156 104.911 156.747 104.707C156.337 104.502 155.833 104.399 155.234 104.399H152.635V110.566H155.093ZM157.999 112.031L162.441 119.119H159.511L154.998 112.102L157.999 112.031ZM165.821 101.966H177.091V104.399H168.349V109.29H176.122V111.724H168.349V116.686H177.422V119.119H165.821V101.966ZM190.234 105.25C189.635 104.935 188.99 104.667 188.296 104.447C187.603 104.226 186.934 104.116 186.288 104.116C185.406 104.116 184.705 104.321 184.185 104.73C183.666 105.124 183.406 105.667 183.406 106.36C183.406 106.849 183.579 107.274 183.925 107.636C184.272 107.999 184.721 108.314 185.272 108.581C185.823 108.849 186.406 109.101 187.021 109.338C187.54 109.527 188.052 109.755 188.556 110.023C189.076 110.275 189.541 110.59 189.95 110.968C190.376 111.346 190.706 111.818 190.943 112.385C191.195 112.937 191.321 113.614 191.321 114.417C191.321 115.331 191.092 116.158 190.636 116.898C190.195 117.639 189.549 118.229 188.698 118.67C187.863 119.096 186.847 119.308 185.65 119.308C184.926 119.308 184.217 119.23 183.524 119.072C182.846 118.899 182.201 118.678 181.586 118.41C180.988 118.127 180.444 117.82 179.956 117.489L181.09 115.528C181.468 115.796 181.901 116.056 182.39 116.308C182.878 116.544 183.382 116.733 183.902 116.875C184.437 117.016 184.941 117.087 185.414 117.087C185.934 117.087 186.446 117.001 186.95 116.827C187.454 116.638 187.871 116.355 188.202 115.977C188.533 115.583 188.698 115.071 188.698 114.441C188.698 113.906 188.549 113.457 188.249 113.094C187.966 112.716 187.58 112.393 187.092 112.126C186.619 111.858 186.107 111.622 185.556 111.417C185.02 111.212 184.477 110.984 183.925 110.732C183.374 110.48 182.862 110.18 182.39 109.834C181.917 109.471 181.531 109.03 181.232 108.511C180.948 107.975 180.807 107.321 180.807 106.549C180.807 105.636 181.019 104.84 181.445 104.163C181.886 103.47 182.492 102.927 183.264 102.533C184.036 102.139 184.926 101.919 185.934 101.871C187.084 101.871 188.084 102.013 188.934 102.297C189.785 102.58 190.541 102.919 191.203 103.313L190.234 105.25ZM203.986 105.25C203.388 104.935 202.742 104.667 202.049 104.447C201.356 104.226 200.686 104.116 200.041 104.116C199.158 104.116 198.457 104.321 197.938 104.73C197.418 105.124 197.158 105.667 197.158 106.36C197.158 106.849 197.331 107.274 197.678 107.636C198.024 107.999 198.473 108.314 199.025 108.581C199.576 108.849 200.159 109.101 200.773 109.338C201.293 109.527 201.805 109.755 202.309 110.023C202.829 110.275 203.293 110.59 203.703 110.968C204.128 111.346 204.459 111.818 204.695 112.385C204.947 112.937 205.073 113.614 205.073 114.417C205.073 115.331 204.845 116.158 204.388 116.898C203.947 117.639 203.301 118.229 202.451 118.67C201.616 119.096 200.6 119.308 199.403 119.308C198.678 119.308 197.969 119.23 197.276 119.072C196.599 118.899 195.953 118.678 195.339 118.41C194.74 118.127 194.196 117.82 193.708 117.489L194.842 115.528C195.221 115.796 195.654 116.056 196.142 116.308C196.63 116.544 197.134 116.733 197.654 116.875C198.19 117.016 198.694 117.087 199.166 117.087C199.686 117.087 200.198 117.001 200.702 116.827C201.206 116.638 201.624 116.355 201.954 115.977C202.285 115.583 202.451 115.071 202.451 114.441C202.451 113.906 202.301 113.457 202.002 113.094C201.718 112.716 201.332 112.393 200.844 112.126C200.371 111.858 199.859 111.622 199.308 111.417C198.773 111.212 198.229 110.984 197.678 110.732C197.126 110.48 196.615 110.18 196.142 109.834C195.669 109.471 195.284 109.03 194.984 108.511C194.7 107.975 194.559 107.321 194.559 106.549C194.559 105.636 194.771 104.84 195.197 104.163C195.638 103.47 196.244 102.927 197.016 102.533C197.788 102.139 198.678 101.919 199.686 101.871C200.836 101.871 201.836 102.013 202.687 102.297C203.537 102.58 204.293 102.919 204.955 103.313L203.986 105.25ZM208.806 101.966H220.077V104.399H211.334V109.29H219.108V111.724H211.334V116.686H220.407V119.119H208.806V101.966ZM233.219 105.25C232.621 104.935 231.975 104.667 231.282 104.447C230.589 104.226 229.919 104.116 229.274 104.116C228.391 104.116 227.691 104.321 227.171 104.73C226.651 105.124 226.391 105.667 226.391 106.36C226.391 106.849 226.564 107.274 226.911 107.636C227.257 107.999 227.706 108.314 228.258 108.581C228.809 108.849 229.392 109.101 230.006 109.338C230.526 109.527 231.038 109.755 231.542 110.023C232.062 110.275 232.526 110.59 232.936 110.968C233.361 111.346 233.692 111.818 233.928 112.385C234.18 112.937 234.306 113.614 234.306 114.417C234.306 115.331 234.078 116.158 233.621 116.898C233.18 117.639 232.534 118.229 231.684 118.67C230.849 119.096 229.833 119.308 228.636 119.308C227.911 119.308 227.202 119.23 226.509 119.072C225.832 118.899 225.186 118.678 224.572 118.41C223.973 118.127 223.43 117.82 222.941 117.489L224.076 115.528C224.454 115.796 224.887 116.056 225.375 116.308C225.863 116.544 226.367 116.733 226.887 116.875C227.423 117.016 227.927 117.087 228.399 117.087C228.919 117.087 229.431 117.001 229.935 116.827C230.439 116.638 230.857 116.355 231.187 115.977C231.518 115.583 231.684 115.071 231.684 114.441C231.684 113.906 231.534 113.457 231.235 113.094C230.951 112.716 230.565 112.393 230.077 112.126C229.604 111.858 229.092 111.622 228.541 111.417C228.006 111.212 227.462 110.984 226.911 110.732C226.36 110.48 225.848 110.18 225.375 109.834C224.902 109.471 224.517 109.03 224.217 108.511C223.934 107.975 223.792 107.321 223.792 106.549C223.792 105.636 224.005 104.84 224.43 104.163C224.871 103.47 225.477 102.927 226.249 102.533C227.021 102.139 227.911 101.919 228.919 101.871C230.069 101.871 231.069 102.013 231.92 102.297C232.77 102.58 233.527 102.919 234.188 103.313L233.219 105.25Z" fill="#212956"/>
<path d="M32.8825 125.848C34.1188 125.848 35.0909 126.178 35.7989 126.837C36.5181 127.497 36.8777 128.509 36.8777 129.872C36.8777 130.752 36.7204 131.507 36.4057 132.137C36.1023 132.768 35.6753 133.259 35.1246 133.611C34.5851 133.948 33.9446 134.139 33.2028 134.183L32.9331 132.929C33.7985 132.958 34.5683 133.156 35.2426 133.523C35.9281 133.875 36.4676 134.373 36.8609 135.018C37.2655 135.649 37.4678 136.404 37.4678 137.284C37.4678 138.09 37.3498 138.786 37.1138 139.373C36.889 139.945 36.5799 140.414 36.1866 140.78C35.8045 141.132 35.3662 141.396 34.8717 141.572C34.3885 141.733 33.8828 141.814 33.3546 141.814H29.6291V125.848H32.8825ZM33.2028 132.753C33.8322 132.753 34.2929 132.519 34.5851 132.049C34.8773 131.58 35.0234 131.023 35.0234 130.378C35.0234 129.586 34.8324 129.015 34.4503 128.663C34.0794 128.296 33.5849 128.113 32.9668 128.113H31.4328V132.753H33.2028ZM33.2703 139.637C33.7086 139.637 34.1019 139.556 34.4503 139.395C34.8099 139.219 35.0909 138.962 35.2932 138.625C35.5067 138.273 35.6134 137.833 35.6134 137.306C35.6134 136.719 35.4898 136.265 35.2426 135.942C35.0066 135.605 34.6975 135.37 34.3154 135.238C33.9446 135.092 33.5568 135.018 33.1523 135.018H31.4328V139.637H33.2703ZM43.0817 142.034C42.2613 142.034 41.5589 141.829 40.9745 141.418C40.3901 140.993 39.9406 140.414 39.6259 139.681C39.3112 138.933 39.1539 138.083 39.1539 137.13C39.1539 136.221 39.3281 135.4 39.6765 134.667C40.0361 133.919 40.5137 133.325 41.1093 132.885C41.7162 132.445 42.3849 132.225 43.1154 132.225C44.0594 132.225 44.8404 132.585 45.4585 133.303C46.0879 134.021 46.5093 135.026 46.7229 136.316L40.9745 138.911L40.5699 137.592L45.172 135.436L44.818 135.722C44.6831 135.268 44.4696 134.872 44.1774 134.535C43.8852 134.183 43.4862 134.007 42.9805 134.007C42.5759 134.007 42.2107 134.139 41.8848 134.403C41.5701 134.652 41.3172 135.004 41.1262 135.458C40.9464 135.898 40.8565 136.419 40.8565 137.02C40.8565 137.636 40.952 138.178 41.1431 138.647C41.3453 139.102 41.6151 139.461 41.9522 139.725C42.3006 139.989 42.6883 140.121 43.1154 140.121C43.4188 140.121 43.7054 140.047 43.9751 139.901C44.256 139.754 44.5201 139.571 44.7674 139.351L45.5597 141.022C45.1888 141.33 44.7842 141.579 44.346 141.77C43.9189 141.946 43.4975 142.034 43.0817 142.034ZM50.707 142.012C50.19 142.012 49.6899 141.895 49.2067 141.66C48.7234 141.411 48.3245 141.052 48.0098 140.582L48.7515 139.307C49.055 139.673 49.3584 139.952 49.6618 140.143C49.9765 140.319 50.2743 140.407 50.5553 140.407C50.7801 140.407 50.9823 140.377 51.1622 140.319C51.342 140.245 51.4881 140.128 51.6004 139.967C51.7128 139.805 51.769 139.593 51.769 139.329C51.769 139.021 51.6904 138.779 51.533 138.603C51.3757 138.427 51.1734 138.281 50.9261 138.163C50.6789 138.046 50.4148 137.936 50.1338 137.833C49.5382 137.584 49.0887 137.232 48.7853 136.778C48.4818 136.309 48.3301 135.759 48.3301 135.128C48.3301 134.645 48.42 134.19 48.5998 133.765C48.7909 133.325 49.0775 132.966 49.4596 132.687C49.8417 132.409 50.3137 132.269 50.8756 132.269C51.3925 132.269 51.8477 132.35 52.241 132.511C52.6344 132.658 52.9996 132.915 53.3368 133.281L52.6625 134.645C52.4602 134.381 52.2186 134.183 51.9376 134.051C51.6679 133.904 51.4206 133.824 51.1959 133.809C50.9936 133.809 50.8081 133.853 50.6396 133.941C50.471 134.014 50.3361 134.131 50.235 134.293C50.1339 134.439 50.0833 134.615 50.0833 134.821C50.072 135.114 50.1451 135.356 50.3024 135.546C50.471 135.722 50.6845 135.869 50.943 135.986C51.2015 136.089 51.4543 136.199 51.7016 136.316C52.05 136.448 52.359 136.631 52.6287 136.866C52.8985 137.086 53.112 137.357 53.2693 137.679C53.4267 138.002 53.5053 138.413 53.5053 138.911C53.5053 139.454 53.4042 139.967 53.2019 140.451C52.9996 140.92 52.6906 141.301 52.2747 141.594C51.8589 141.873 51.3363 142.012 50.707 142.012ZM56.3213 128.553H58.0576V132.621H59.9456V134.403H58.0576V141.814H56.3213V134.403H55.0738V132.621H56.3213V128.553ZM73.9468 128.905C73.5198 128.611 73.059 128.362 72.5645 128.157C72.07 127.952 71.5924 127.849 71.1316 127.849C70.5023 127.849 70.0022 128.04 69.6313 128.421C69.2605 128.787 69.075 129.293 69.075 129.938C69.075 130.393 69.1986 130.789 69.4459 131.126C69.6931 131.463 70.0134 131.756 70.4068 132.006C70.8001 132.255 71.2159 132.489 71.6542 132.709C72.0251 132.885 72.3903 133.098 72.7499 133.347C73.1208 133.582 73.4523 133.875 73.7445 134.227C74.048 134.579 74.284 135.018 74.4525 135.546C74.6323 136.059 74.7223 136.69 74.7223 137.438C74.7223 138.288 74.5593 139.058 74.2334 139.747C73.9187 140.436 73.4579 140.986 72.8511 141.396C72.2555 141.792 71.5306 141.99 70.6765 141.99C70.1595 141.99 69.6538 141.917 69.1593 141.77C68.6761 141.609 68.2153 141.404 67.777 141.154C67.3499 140.89 66.9622 140.604 66.6138 140.297L67.423 138.471C67.6927 138.72 68.0018 138.962 68.3501 139.197C68.6985 139.417 69.0582 139.593 69.429 139.725C69.8111 139.857 70.1707 139.923 70.5079 139.923C70.8788 139.923 71.244 139.842 71.6036 139.681C71.9633 139.505 72.2611 139.241 72.4971 138.889C72.7331 138.523 72.8511 138.046 72.8511 137.46C72.8511 136.961 72.7443 136.543 72.5308 136.206C72.3285 135.854 72.0532 135.554 71.7048 135.304C71.3676 135.055 71.0024 134.835 70.609 134.645C70.2269 134.454 69.8392 134.241 69.4459 134.007C69.0525 133.772 68.6873 133.494 68.3501 133.171C68.013 132.834 67.7377 132.423 67.5241 131.94C67.3218 131.441 67.2207 130.833 67.2207 130.114C67.2207 129.264 67.3724 128.523 67.6759 127.893C67.9905 127.248 68.4232 126.742 68.9739 126.376C69.5245 126.009 70.1595 125.804 70.8788 125.76C71.6992 125.76 72.4128 125.892 73.0197 126.156C73.6265 126.419 74.166 126.735 74.638 127.101L73.9468 128.905ZM82.7807 140.956C82.466 141.294 82.0839 141.557 81.6343 141.748C81.1961 141.939 80.7521 142.034 80.3026 142.034C79.5272 142.034 78.8416 141.836 78.246 141.44C77.6616 141.044 77.2065 140.487 76.8806 139.769C76.5546 139.05 76.3917 138.193 76.3917 137.196C76.3917 136.213 76.5659 135.363 76.9143 134.645C77.2627 133.912 77.7234 133.354 78.2966 132.973C78.8697 132.577 79.4766 132.379 80.1172 132.379C80.7016 132.379 81.2185 132.482 81.6681 132.687C82.1176 132.893 82.5053 133.178 82.8312 133.545L81.9715 135.018C81.7804 134.813 81.5388 134.63 81.2466 134.469C80.9657 134.307 80.6398 134.227 80.2689 134.227C79.8756 134.227 79.5159 134.359 79.19 134.623C78.8641 134.872 78.6056 135.224 78.4146 135.678C78.2235 136.118 78.128 136.624 78.128 137.196C78.128 137.738 78.2235 138.244 78.4146 138.713C78.6169 139.168 78.8922 139.527 79.2406 139.791C79.589 140.055 79.9879 140.187 80.4375 140.187C80.7297 140.187 80.9994 140.135 81.2466 140.033C81.4939 139.915 81.713 139.754 81.9041 139.549L82.7807 140.956ZM84.7687 141.814V124.726H86.4544V134.689L86.4376 134.315C86.6736 133.714 87.0332 133.215 87.5165 132.819C87.9997 132.423 88.5785 132.225 89.2528 132.225C89.9158 132.225 90.4609 132.482 90.8879 132.995C91.3262 133.508 91.551 134.175 91.5622 134.996V141.814H89.8259V135.788C89.8147 135.319 89.7079 134.938 89.5056 134.645C89.3033 134.337 88.9887 134.175 88.5616 134.161C88.1795 134.161 87.8311 134.315 87.5165 134.623C87.2018 134.916 86.9545 135.326 86.7747 135.854C86.5949 136.367 86.505 136.954 86.505 137.614V141.814H84.7687ZM93.6112 137.108C93.6112 136.184 93.7797 135.356 94.1169 134.623C94.454 133.875 94.9204 133.288 95.516 132.863C96.1117 132.438 96.7916 132.225 97.5558 132.225C98.3312 132.225 99.0111 132.438 99.5955 132.863C100.18 133.288 100.629 133.875 100.944 134.623C101.27 135.356 101.433 136.184 101.433 137.108C101.433 138.031 101.27 138.867 100.944 139.615C100.629 140.363 100.18 140.956 99.5955 141.396C99.0111 141.821 98.3256 142.034 97.5389 142.034C96.786 142.034 96.1117 141.836 95.516 141.44C94.9317 141.044 94.4653 140.48 94.1169 139.747C93.7797 138.999 93.6112 138.119 93.6112 137.108ZM95.3643 137.13C95.3643 137.701 95.4599 138.222 95.6509 138.691C95.842 139.146 96.1004 139.512 96.4263 139.791C96.7523 140.055 97.1175 140.187 97.5221 140.187C97.9379 140.187 98.3088 140.055 98.6347 139.791C98.9606 139.512 99.2134 139.146 99.3932 138.691C99.5843 138.222 99.6798 137.701 99.6798 137.13C99.6798 136.558 99.5843 136.045 99.3932 135.59C99.2134 135.136 98.9606 134.769 98.6347 134.491C98.3088 134.212 97.9379 134.073 97.5221 134.073C97.1063 134.073 96.7354 134.212 96.4095 134.491C96.0836 134.769 95.8251 135.143 95.634 135.612C95.4542 136.067 95.3643 136.573 95.3643 137.13ZM102.88 137.108C102.88 136.184 103.048 135.356 103.385 134.623C103.722 133.875 104.189 133.288 104.784 132.863C105.38 132.438 106.06 132.225 106.824 132.225C107.6 132.225 108.28 132.438 108.864 132.863C109.448 133.288 109.898 133.875 110.213 134.623C110.538 135.356 110.701 136.184 110.701 137.108C110.701 138.031 110.538 138.867 110.213 139.615C109.898 140.363 109.448 140.956 108.864 141.396C108.28 141.821 107.594 142.034 106.807 142.034C106.054 142.034 105.38 141.836 104.784 141.44C104.2 141.044 103.734 140.48 103.385 139.747C103.048 138.999 102.88 138.119 102.88 137.108ZM104.633 137.13C104.633 137.701 104.728 138.222 104.919 138.691C105.11 139.146 105.369 139.512 105.695 139.791C106.021 140.055 106.386 140.187 106.79 140.187C107.206 140.187 107.577 140.055 107.903 139.791C108.229 139.512 108.482 139.146 108.662 138.691C108.853 138.222 108.948 137.701 108.948 137.13C108.948 136.558 108.853 136.045 108.662 135.59C108.482 135.136 108.229 134.769 107.903 134.491C107.577 134.212 107.206 134.073 106.79 134.073C106.375 134.073 106.004 134.212 105.678 134.491C105.352 134.769 105.093 135.143 104.902 135.612C104.723 136.067 104.633 136.573 104.633 137.13ZM112.755 124.726H114.491V141.814H112.755V124.726ZM121.769 132.599L123.742 138.515L123.405 138.537L125.208 132.599H126.911L123.674 142.364L121.415 136.096L119.342 142.364L116.088 132.599H117.791L119.881 138.801L119.274 138.669L120.792 134.095L120.269 132.599H121.769ZM131.665 142.034C130.845 142.034 130.143 141.829 129.558 141.418C128.974 140.993 128.524 140.414 128.21 139.681C127.895 138.933 127.738 138.083 127.738 137.13C127.738 136.221 127.912 135.4 128.26 134.667C128.62 133.919 129.097 133.325 129.693 132.885C130.3 132.445 130.969 132.225 131.699 132.225C132.643 132.225 133.424 132.585 134.042 133.303C134.672 134.021 135.093 135.026 135.307 136.316L129.558 138.911L129.154 137.592L133.756 135.436L133.402 135.722C133.267 135.268 133.053 134.872 132.761 134.535C132.469 134.183 132.07 134.007 131.564 134.007C131.16 134.007 130.794 134.139 130.469 134.403C130.154 134.652 129.901 135.004 129.71 135.458C129.53 135.898 129.44 136.419 129.44 137.02C129.44 137.636 129.536 138.178 129.727 138.647C129.929 139.102 130.199 139.461 130.536 139.725C130.884 139.989 131.272 140.121 131.699 140.121C132.003 140.121 132.289 140.047 132.559 139.901C132.84 139.754 133.104 139.571 133.351 139.351L134.143 141.022C133.773 141.33 133.368 141.579 132.93 141.77C132.503 141.946 132.081 142.034 131.665 142.034ZM140.184 142.034C139.521 142.034 138.92 141.858 138.38 141.506C137.841 141.14 137.414 140.597 137.099 139.879C136.785 139.16 136.627 138.273 136.627 137.218C136.627 136.177 136.79 135.282 137.116 134.535C137.453 133.787 137.892 133.215 138.431 132.819C138.982 132.409 139.577 132.203 140.218 132.203C140.892 132.203 141.443 132.394 141.87 132.775C142.308 133.142 142.651 133.574 142.898 134.073L142.78 134.425L142.949 132.599H144.55V141.814H142.814V139.505L142.999 140.055C142.954 140.172 142.859 140.341 142.713 140.56C142.567 140.766 142.37 140.986 142.123 141.22C141.887 141.455 141.606 141.653 141.28 141.814C140.965 141.961 140.6 142.034 140.184 142.034ZM140.656 140.187C141.027 140.187 141.359 140.099 141.651 139.923C141.943 139.747 142.19 139.498 142.393 139.175C142.595 138.852 142.735 138.471 142.814 138.031V136.118C142.724 135.708 142.572 135.356 142.359 135.062C142.145 134.755 141.887 134.513 141.583 134.337C141.291 134.161 140.965 134.073 140.606 134.073C140.201 134.073 139.83 134.205 139.493 134.469C139.156 134.718 138.886 135.07 138.684 135.524C138.482 135.979 138.38 136.507 138.38 137.108C138.38 137.679 138.482 138.2 138.684 138.669C138.897 139.138 139.178 139.512 139.527 139.791C139.875 140.055 140.252 140.187 140.656 140.187ZM148.761 132.599L148.93 135.238L148.845 134.886C149.036 134.329 149.306 133.853 149.655 133.457C150.003 133.061 150.363 132.761 150.733 132.555C151.116 132.335 151.436 132.225 151.694 132.225L151.61 134.469C151.071 134.425 150.599 134.557 150.194 134.864C149.801 135.172 149.492 135.583 149.267 136.096C149.042 136.609 148.93 137.159 148.93 137.745V141.814H147.21V132.599H148.761ZM159.418 141.814V125.848H162.823C164.037 125.848 165.071 126.09 165.925 126.573C166.779 127.057 167.465 127.695 167.982 128.487C168.51 129.278 168.892 130.158 169.128 131.126C169.375 132.093 169.499 133.068 169.499 134.051C169.499 135.238 169.336 136.309 169.01 137.262C168.684 138.215 168.24 139.036 167.678 139.725C167.116 140.399 166.47 140.92 165.739 141.286C165.009 141.638 164.234 141.814 163.413 141.814H159.418ZM161.222 139.549H163.076C163.739 139.549 164.346 139.424 164.897 139.175C165.459 138.926 165.942 138.559 166.346 138.075C166.762 137.592 167.082 136.998 167.307 136.294C167.532 135.59 167.644 134.784 167.644 133.875C167.644 132.893 167.515 132.042 167.257 131.324C167.009 130.591 166.678 129.99 166.262 129.52C165.846 129.037 165.38 128.685 164.863 128.465C164.357 128.23 163.84 128.113 163.312 128.113H161.222V139.549ZM175.109 142.034C174.289 142.034 173.587 141.829 173.002 141.418C172.418 140.993 171.968 140.414 171.654 139.681C171.339 138.933 171.182 138.083 171.182 137.13C171.182 136.221 171.356 135.4 171.704 134.667C172.064 133.919 172.541 133.325 173.137 132.885C173.744 132.445 174.413 132.225 175.143 132.225C176.087 132.225 176.868 132.585 177.486 133.303C178.116 134.021 178.537 135.026 178.751 136.316L173.002 138.911L172.598 137.592L177.2 135.436L176.846 135.722C176.711 135.268 176.497 134.872 176.205 134.535C175.913 134.183 175.514 134.007 175.008 134.007C174.604 134.007 174.238 134.139 173.913 134.403C173.598 134.652 173.345 135.004 173.154 135.458C172.974 135.898 172.884 136.419 172.884 137.02C172.884 137.636 172.98 138.178 173.171 138.647C173.373 139.102 173.643 139.461 173.98 139.725C174.328 139.989 174.716 140.121 175.143 140.121C175.447 140.121 175.733 140.047 176.003 139.901C176.284 139.754 176.548 139.571 176.795 139.351L177.587 141.022C177.217 141.33 176.812 141.579 176.374 141.77C175.947 141.946 175.525 142.034 175.109 142.034ZM182.735 142.012C182.218 142.012 181.718 141.895 181.234 141.66C180.751 141.411 180.352 141.052 180.038 140.582L180.779 139.307C181.083 139.673 181.386 139.952 181.69 140.143C182.004 140.319 182.302 140.407 182.583 140.407C182.808 140.407 183.01 140.377 183.19 140.319C183.37 140.245 183.516 140.128 183.628 139.967C183.741 139.805 183.797 139.593 183.797 139.329C183.797 139.021 183.718 138.779 183.561 138.603C183.403 138.427 183.201 138.281 182.954 138.163C182.707 138.046 182.443 137.936 182.162 137.833C181.566 137.584 181.116 137.232 180.813 136.778C180.51 136.309 180.358 135.759 180.358 135.128C180.358 134.645 180.448 134.19 180.628 133.765C180.819 133.325 181.105 132.966 181.487 132.687C181.869 132.409 182.341 132.269 182.903 132.269C183.42 132.269 183.875 132.35 184.269 132.511C184.662 132.658 185.027 132.915 185.365 133.281L184.69 134.645C184.488 134.381 184.246 134.183 183.965 134.051C183.696 133.904 183.448 133.824 183.224 133.809C183.021 133.809 182.836 133.853 182.667 133.941C182.499 134.014 182.364 134.131 182.263 134.293C182.162 134.439 182.111 134.615 182.111 134.821C182.1 135.114 182.173 135.356 182.33 135.546C182.499 135.722 182.712 135.869 182.971 135.986C183.229 136.089 183.482 136.199 183.729 136.316C184.078 136.448 184.387 136.631 184.657 136.866C184.926 137.086 185.14 137.357 185.297 137.679C185.454 138.002 185.533 138.413 185.533 138.911C185.533 139.454 185.432 139.967 185.23 140.451C185.027 140.92 184.718 141.301 184.302 141.594C183.887 141.873 183.364 142.012 182.735 142.012ZM187.675 132.599H189.411V141.814H187.675V132.599ZM187.573 129.3C187.573 128.949 187.68 128.655 187.894 128.421C188.107 128.186 188.338 128.069 188.585 128.069C188.843 128.069 189.074 128.186 189.276 128.421C189.478 128.655 189.579 128.949 189.579 129.3C189.579 129.652 189.478 129.946 189.276 130.18C189.074 130.4 188.843 130.51 188.585 130.51C188.338 130.51 188.107 130.4 187.894 130.18C187.68 129.946 187.573 129.652 187.573 129.3ZM195.509 146.388C194.959 146.388 194.481 146.308 194.076 146.147C193.672 145.985 193.307 145.758 192.981 145.465C192.666 145.186 192.363 144.886 192.07 144.563L193.099 143.002C193.447 143.427 193.807 143.764 194.178 144.013C194.548 144.277 194.981 144.409 195.476 144.409C195.97 144.409 196.392 144.299 196.74 144.079C197.1 143.874 197.375 143.581 197.566 143.2C197.757 142.818 197.852 142.364 197.852 141.836L197.869 139.439L197.987 139.879C197.796 140.48 197.442 140.993 196.925 141.418C196.408 141.829 195.773 142.034 195.02 142.034C194.38 142.034 193.784 141.821 193.234 141.396C192.694 140.971 192.261 140.392 191.936 139.659C191.61 138.926 191.447 138.097 191.447 137.174C191.447 136.206 191.615 135.356 191.952 134.623C192.301 133.875 192.756 133.288 193.318 132.863C193.88 132.423 194.481 132.203 195.122 132.203C195.751 132.203 196.313 132.365 196.807 132.687C197.302 132.995 197.673 133.384 197.92 133.853L197.819 134.227L198.004 132.599H199.606V141.858C199.606 142.708 199.432 143.471 199.083 144.145C198.746 144.834 198.274 145.377 197.667 145.773C197.06 146.183 196.341 146.388 195.509 146.388ZM193.2 137.108C193.2 137.679 193.301 138.2 193.503 138.669C193.706 139.138 193.981 139.512 194.329 139.791C194.689 140.055 195.088 140.187 195.526 140.187C195.919 140.187 196.274 140.099 196.588 139.923C196.903 139.732 197.167 139.483 197.38 139.175C197.605 138.852 197.768 138.479 197.869 138.053V136.14C197.768 135.715 197.605 135.356 197.38 135.062C197.156 134.755 196.886 134.513 196.571 134.337C196.257 134.161 195.908 134.073 195.526 134.073C195.088 134.073 194.689 134.205 194.329 134.469C193.981 134.718 193.706 135.07 193.503 135.524C193.301 135.979 193.2 136.507 193.2 137.108ZM203.811 132.599L203.963 134.711L203.895 134.425C204.131 133.765 204.497 133.237 204.991 132.841C205.486 132.431 206.07 132.225 206.744 132.225C207.407 132.225 207.952 132.482 208.379 132.995C208.818 133.508 209.042 134.175 209.054 134.996V141.814H207.317V135.788C207.306 135.319 207.199 134.938 206.997 134.645C206.795 134.337 206.48 134.175 206.053 134.161C205.671 134.161 205.323 134.315 205.008 134.623C204.693 134.916 204.446 135.319 204.266 135.832C204.086 136.345 203.996 136.939 203.996 137.614V141.814H202.26V132.599H203.811ZM213.766 142.012C213.249 142.012 212.749 141.895 212.266 141.66C211.783 141.411 211.384 141.052 211.069 140.582L211.811 139.307C212.114 139.673 212.418 139.952 212.721 140.143C213.036 140.319 213.334 140.407 213.615 140.407C213.839 140.407 214.042 140.377 214.221 140.319C214.401 140.245 214.547 140.128 214.66 139.967C214.772 139.805 214.828 139.593 214.828 139.329C214.828 139.021 214.75 138.779 214.592 138.603C214.435 138.427 214.233 138.281 213.985 138.163C213.738 138.046 213.474 137.936 213.193 137.833C212.597 137.584 212.148 137.232 211.844 136.778C211.541 136.309 211.389 135.759 211.389 135.128C211.389 134.645 211.479 134.19 211.659 133.765C211.85 133.325 212.137 132.966 212.519 132.687C212.901 132.409 213.373 132.269 213.935 132.269C214.452 132.269 214.907 132.35 215.3 132.511C215.694 132.658 216.059 132.915 216.396 133.281L215.722 134.645C215.519 134.381 215.278 134.183 214.997 134.051C214.727 133.904 214.48 133.824 214.255 133.809C214.053 133.809 213.867 133.853 213.699 133.941C213.53 134.014 213.395 134.131 213.294 134.293C213.193 134.439 213.143 134.615 213.143 134.821C213.131 135.114 213.204 135.356 213.362 135.546C213.53 135.722 213.744 135.869 214.002 135.986C214.261 136.089 214.514 136.199 214.761 136.316C215.109 136.448 215.418 136.631 215.688 136.866C215.958 137.086 216.171 137.357 216.329 137.679C216.486 138.002 216.565 138.413 216.565 138.911C216.565 139.454 216.463 139.967 216.261 140.451C216.059 140.92 215.75 141.301 215.334 141.594C214.918 141.873 214.396 142.012 213.766 142.012Z" fill="#B70F0F"/>
<path d="M88.1215 7.8673L92.0173 12.6797C93.1337 14.0588 92.1522 16.1163 90.3778 16.1163H80.6445C78.9944 16.1163 77.9832 17.9258 78.8481 19.3312L80.7755 22.4632C80.9801 22.7957 81.0884 23.1784 81.0884 23.5688V63.2127C81.0884 63.4537 81.1315 63.6987 81.2135 63.9252C90.123 88.5057 108.725 92.5756 116.948 91.5258C135.702 91.5258 144.599 82.4441 147.622 76.1549C148.222 74.9072 147.232 73.5963 145.848 73.5963H137.25C136.522 73.5963 135.932 73.0061 135.932 72.278C135.932 71.5498 136.522 70.9596 137.25 70.9596H150.697C151.28 70.9596 151.752 70.4874 151.752 69.9049C151.752 69.3224 151.28 68.8502 150.697 68.8502H143.036C141.468 68.8502 140.448 67.2001 141.149 65.7976L141.677 64.7429C142.034 64.0283 142.764 63.5769 143.564 63.5769H151.752C152.917 63.5769 153.861 62.6325 153.861 61.4675V23.5035C153.861 23.1545 153.948 22.8109 154.113 22.5034L155.878 19.2257C156.635 17.8203 155.617 16.1163 154.021 16.1163H144.045C142.27 16.1163 141.289 14.0588 142.405 12.6797L146.291 7.87907C147.313 6.6176 146.586 4.7237 144.983 4.4687L129.675 2.03324C127.936 1.7566 126.631 3.61721 127.422 5.1902C145.799 41.7247 130.026 67.5801 118.35 77.2435C117.555 77.9016 116.39 77.8057 115.667 77.0684C90.98 51.8696 97.882 21.1753 106.116 5.46291C106.966 3.84097 105.612 1.82265 103.804 2.11687L89.4221 4.45813C87.8235 4.71836 87.1024 6.60845 88.1215 7.8673Z" fill="#2B3467"/>
</svg>
